<svg xmlns="http://www.w3.org/2000/svg" xmlns:xlink="http://www.w3.org/1999/xlink" width="416" zoomAndPan="magnify" viewBox="0 0 312 221.249992" height="295" preserveAspectRatio="xMidYMid meet" version="1.0"><defs><g/><clipPath id="bb956c4590"><path d="M 120 62.625 L 139 62.625 L 139 71 L 120 71 Z M 120 62.625 " clip-rule="nonzero"/></clipPath><clipPath id="181c83e53c"><path d="M 95.128906 108 L 107 108 L 107 138 L 95.128906 138 Z M 95.128906 108 " clip-rule="nonzero"/></clipPath><clipPath id="e183ebb4d6"><path d="M 116.820312 64.375 L 189.875 64.375 L 189.875 150.328125 L 116.820312 150.328125 Z M 116.820312 64.375 " clip-rule="nonzero"/></clipPath><clipPath id="e9a893172f"><path d="M 111.5 115.332031 L 189.875 115.332031 L 189.875 157.335938 L 111.5 157.335938 Z M 111.5 115.332031 " clip-rule="nonzero"/></clipPath><clipPath id="ff14cdc0d7"><path d="M 233 45 L 273.996094 45 L 273.996094 86 L 233 86 Z M 233 45 " clip-rule="nonzero"/></clipPath><clipPath id="51b1e7d1a9"><path d="M 75 107 L 215 107 L 215 182.308594 L 75 182.308594 Z M 75 107 " clip-rule="nonzero"/></clipPath><clipPath id="4e0dabb18a"><path d="M 76 37.746094 L 212 37.746094 L 212 96 L 76 96 Z M 76 37.746094 " clip-rule="nonzero"/></clipPath><clipPath id="c069472189"><path d="M 37.957031 85 L 247 85 L 247 138 L 37.957031 138 Z M 37.957031 85 " clip-rule="nonzero"/></clipPath></defs><path fill="#a6a6a6" d="M 172.847656 135.058594 C 172.660156 135.328125 172.671875 135.375 172.667969 135.492188 C 172.652344 135.632812 172.757812 135.917969 172.773438 136.476562 C 172.777344 136.507812 172.777344 136.539062 172.777344 136.570312 C 173.28125 135.707031 173.734375 134.8125 174.125 133.960938 C 173.40625 134.445312 173.023438 134.816406 172.847656 135.058594 Z M 169.136719 141.367188 C 168.957031 141.019531 168.945312 140.746094 168.9375 140.488281 C 168.945312 139.824219 169.144531 139.160156 169.421875 138.476562 C 169.707031 137.796875 170.0625 137.144531 170.570312 136.628906 C 170.65625 136.539062 170.671875 136.503906 170.671875 136.5 C 170.671875 136.496094 170.671875 136.5 170.675781 136.476562 C 170.691406 136.410156 170.578125 136.070312 170.566406 135.492188 C 170.554688 134.992188 170.734375 134.355469 171.160156 133.804688 C 171.585938 133.242188 172.207031 132.699219 173.164062 132.082031 L 173.738281 132.960938 L 173.164062 132.082031 C 174.339844 131.320312 174.769531 130.800781 174.898438 130.5625 C 175.03125 130.289062 174.953125 130.4375 175.046875 129.902344 C 175.078125 129.742188 175.179688 129.472656 175.390625 129.261719 C 175.636719 129.015625 175.917969 128.925781 176.121094 128.882812 C 176.359375 128.832031 176.566406 128.828125 176.820312 128.828125 C 177.148438 128.828125 177.460938 128.984375 177.660156 129.25 C 177.859375 129.515625 177.921875 129.859375 177.828125 130.175781 C 177.796875 130.234375 176.0625 136.234375 172.789062 140.242188 C 172.332031 140.792969 171.949219 141.195312 171.589844 141.492188 C 171.21875 141.769531 170.90625 142.027344 170.292969 142.054688 C 170.273438 142.054688 170.253906 142.054688 170.234375 142.054688 C 169.792969 142.054688 169.285156 141.707031 169.136719 141.367188 " fill-opacity="1" fill-rule="nonzero"/><g clip-path="url(#bb956c4590)"><path fill="#a6a6a6" d="M 128.253906 67.003906 C 129.25 66.808594 130.328125 66.613281 131.476562 66.441406 C 132.710938 66.238281 133.496094 65.867188 134.128906 65.417969 C 132.121094 65.820312 130.160156 66.351562 128.253906 67.003906 Z M 120.828125 70.546875 C 120.542969 70.296875 120.417969 69.914062 120.496094 69.546875 C 120.59375 69.175781 120.78125 68.898438 121.3125 68.40625 C 121.851562 67.914062 122.78125 67.222656 124.507812 66.199219 L 124.636719 66.136719 C 128.710938 64.425781 133.066406 63.273438 137.613281 62.746094 C 138.125 62.6875 138.601562 63.007812 138.742188 63.503906 C 138.882812 64.003906 138.644531 64.523438 138.175781 64.742188 C 137.644531 64.96875 137.070312 65.652344 136.144531 66.496094 C 135.21875 67.332031 133.863281 68.203125 131.796875 68.515625 C 127.289062 69.210938 123.929688 70.132812 122.546875 70.546875 C 122.085938 70.683594 121.859375 70.757812 121.855469 70.757812 C 121.75 70.796875 121.636719 70.8125 121.523438 70.8125 C 121.273438 70.8125 121.019531 70.722656 120.828125 70.546875 " fill-opacity="1" fill-rule="nonzero"/></g><path fill="#a6a6a6" d="M 134.027344 75.605469 C 133.609375 75.582031 133.246094 75.316406 133.097656 74.921875 C 132.949219 74.523438 133.054688 74.082031 133.355469 73.792969 C 133.355469 73.792969 133.402344 73.75 133.488281 73.664062 C 133.574219 73.578125 133.691406 73.453125 133.8125 73.3125 C 133.984375 73.125 134.15625 72.882812 134.253906 72.726562 C 134.070312 72.394531 133.835938 71.933594 133.8125 71.273438 C 133.800781 70.925781 133.941406 70.40625 134.347656 70.070312 C 134.746094 69.738281 135.207031 69.65625 135.636719 69.652344 C 135.859375 69.652344 136.082031 69.675781 136.320312 69.71875 C 136.8125 69.800781 137.179688 70.21875 137.199219 70.71875 C 137.203125 70.945312 137.140625 71.15625 137.023438 71.332031 C 137.261719 71.539062 137.503906 71.753906 137.738281 72.046875 C 138.121094 72.503906 138.390625 73.160156 138.433594 73.894531 L 138.429688 74.097656 C 138.410156 74.457031 138.058594 74.988281 137.511719 75.222656 C 136.960938 75.480469 136.222656 75.621094 134.949219 75.628906 C 134.667969 75.628906 134.363281 75.617188 134.027344 75.605469 " fill-opacity="1" fill-rule="nonzero"/><path fill="#a6a6a6" d="M 132.03125 75.214844 C 131.722656 75.214844 131.394531 75.167969 131.058594 75.066406 L 131.351562 74.058594 L 131.054688 75.066406 C 130.804688 74.992188 130.558594 74.894531 130.308594 74.6875 C 130.058594 74.492188 129.820312 74.078125 129.832031 73.675781 C 129.878906 72.925781 130.257812 72.660156 130.511719 72.414062 C 130.800781 72.183594 131.113281 72.003906 131.445312 71.84375 C 132.125 71.535156 132.785156 71.296875 133.484375 71.277344 C 133.671875 71.285156 133.886719 71.285156 134.191406 71.4375 C 134.5 71.550781 134.882812 72.0625 134.847656 72.5 C 134.84375 72.707031 134.800781 72.867188 134.746094 73 C 134.691406 73.199219 134.566406 73.574219 134.289062 73.996094 C 133.941406 74.542969 133.15625 75.214844 132.066406 75.214844 C 132.054688 75.214844 132.042969 75.214844 132.03125 75.214844 " fill-opacity="1" fill-rule="nonzero"/><g clip-path="url(#181c83e53c)"><path fill="#a6a6a6" d="M 103.113281 132.929688 C 102.949219 132.058594 102.839844 131.105469 102.839844 130.117188 C 102.839844 129.152344 102.941406 128.148438 103.21875 127.167969 C 103.625 125.738281 103.722656 124.769531 103.722656 124.164062 C 103.722656 124.003906 103.71875 123.871094 103.707031 123.761719 L 102.96875 123.648438 C 102.550781 123.582031 102.210938 123.273438 102.105469 122.867188 C 101.839844 121.796875 101.242188 121.164062 100.601562 120.714844 C 99.964844 120.273438 99.292969 120.078125 99.0625 120.027344 C 98.996094 120.007812 98.988281 120.007812 98.988281 120.007812 C 98.515625 119.929688 98.160156 119.539062 98.117188 119.066406 C 98.066406 118.5 97.953125 118.121094 97.824219 117.855469 C 98.703125 123.25 100.523438 128.332031 103.113281 132.929688 Z M 103.28125 137.195312 C 98.136719 129.546875 95.128906 120.339844 95.128906 110.449219 C 95.128906 110.191406 95.140625 109.976562 95.144531 109.792969 C 95.148438 109.347656 95.4375 108.953125 95.863281 108.8125 C 96.289062 108.671875 96.75 108.8125 97.027344 109.164062 C 97.707031 110.050781 98.714844 111.714844 98.71875 113.941406 C 98.71875 114.453125 98.664062 114.984375 98.542969 115.535156 C 98.636719 115.601562 98.738281 115.675781 98.835938 115.761719 C 99.378906 116.230469 99.886719 117.015625 100.113281 118.144531 C 100.464844 118.265625 100.914062 118.449219 101.386719 118.726562 C 102.304688 119.257812 103.367188 120.195312 103.933594 121.671875 L 104.71875 121.792969 C 105.027344 121.84375 105.296875 122.023438 105.457031 122.289062 C 105.570312 122.46875 105.828125 123.035156 105.824219 124.164062 C 105.824219 125 105.6875 126.160156 105.242188 127.742188 L 104.234375 127.460938 L 105.242188 127.75 C 105.03125 128.492188 104.9375 129.304688 104.9375 130.117188 C 104.9375 131.378906 105.15625 132.636719 105.4375 133.640625 C 105.699219 134.628906 106.082031 135.429688 106.175781 135.527344 C 106.445312 135.890625 106.453125 136.386719 106.195312 136.757812 C 105.9375 137.125 105.472656 137.292969 105.042969 137.164062 C 104.855469 137.464844 104.53125 137.648438 104.179688 137.65625 C 104.171875 137.65625 104.160156 137.65625 104.152344 137.65625 C 103.800781 137.65625 103.476562 137.484375 103.28125 137.195312 " fill-opacity="1" fill-rule="nonzero"/></g><g clip-path="url(#e183ebb4d6)"><path fill="#a6a6a6" d="M 145.808594 70.375 C 145.8125 70.375 145.808594 70.375 145.808594 70.375 Z M 144.175781 70.035156 C 144.191406 70.113281 144.222656 70.21875 144.261719 70.300781 C 144.386719 70.453125 144.335938 70.53125 144.851562 70.570312 C 144.945312 70.570312 145.058594 70.558594 145.195312 70.542969 C 144.980469 70.238281 144.71875 69.816406 144.699219 69.171875 C 144.691406 68.726562 144.886719 68.246094 145.191406 67.898438 C 145.5 67.546875 145.890625 67.28125 146.390625 67.027344 C 146.4375 67.003906 146.484375 66.980469 146.527344 66.960938 C 145.867188 66.996094 145.261719 67.207031 144.042969 68.300781 C 143.789062 68.539062 143.550781 68.742188 143.328125 68.925781 C 143.472656 68.953125 143.609375 69.015625 143.730469 69.101562 C 144 69.300781 144.164062 69.613281 144.164062 69.945312 C 144.167969 69.964844 144.171875 69.996094 144.175781 70.035156 Z M 146.898438 69.3125 C 147 69.476562 147.183594 69.683594 147.371094 69.984375 C 147.488281 70.191406 147.652344 70.457031 147.660156 70.90625 C 147.675781 71.234375 147.515625 71.585938 147.308594 71.835938 C 147.472656 71.820312 147.644531 71.796875 147.824219 71.777344 C 148.234375 71.726562 148.589844 71.671875 148.878906 71.613281 C 148.425781 71.230469 147.878906 70.734375 147.480469 70.023438 C 147.292969 69.6875 147.175781 69.347656 147.113281 69.023438 C 146.980469 69.101562 146.890625 69.171875 146.835938 69.21875 C 146.855469 69.246094 146.871094 69.277344 146.898438 69.3125 Z M 162.710938 80.855469 C 162.835938 80.851562 162.9375 80.839844 163.046875 80.804688 C 162.847656 80.691406 162.601562 80.566406 162.339844 80.453125 C 161.507812 80.078125 160.5 79.753906 160.027344 79.613281 C 159.714844 79.519531 159.46875 79.285156 159.351562 78.984375 C 159.214844 79.332031 158.898438 79.59375 158.511719 79.644531 C 158.011719 79.714844 157.535156 79.417969 157.375 78.9375 C 157.28125 78.675781 157.214844 78.644531 157.183594 78.625 C 157.148438 78.601562 157.089844 78.582031 157 78.582031 C 156.292969 79.355469 156.144531 79.882812 156.164062 80.011719 C 156.179688 80.117188 156.148438 80.070312 156.261719 80.167969 C 156.378906 80.25 156.660156 80.339844 156.976562 80.335938 C 157.238281 80.335938 157.511719 80.28125 157.710938 80.195312 C 158.324219 79.929688 158.898438 79.816406 159.410156 79.816406 C 160.445312 79.808594 161.171875 80.308594 161.40625 80.46875 C 161.410156 80.476562 161.417969 80.476562 161.417969 80.480469 C 161.921875 80.710938 162.390625 80.863281 162.710938 80.855469 Z M 143.4375 86.585938 C 143.589844 86.726562 143.925781 86.957031 144.398438 87.210938 C 145.347656 87.722656 146.832031 88.375 148.652344 89.285156 C 149.835938 89.886719 150.535156 90.046875 150.738281 90.03125 C 150.746094 90.03125 150.753906 90.03125 150.757812 90.03125 C 150.828125 89.917969 150.925781 89.5625 151.167969 89.113281 C 151.34375 88.796875 151.652344 88.414062 152.113281 88.1875 C 152.363281 88.0625 152.550781 87.949219 152.828125 87.832031 C 153.101562 87.710938 153.464844 87.628906 153.820312 87.636719 C 154.808594 87.65625 155.925781 87.988281 159.421875 88.753906 C 159.9375 88.867188 160.363281 88.914062 160.695312 88.914062 C 161.5 88.898438 161.722656 88.707031 161.886719 88.515625 C 162.050781 88.324219 162.167969 87.925781 162.164062 87.425781 C 162.167969 86.867188 162.027344 86.238281 161.910156 85.816406 C 160.105469 85.382812 159.140625 85.226562 158.148438 84.953125 C 157.050781 84.652344 156.054688 84.207031 154.269531 83.203125 C 154 83.046875 153.785156 82.960938 153.636719 82.910156 C 153.636719 82.933594 153.636719 82.957031 153.636719 82.980469 C 153.628906 83.476562 153.84375 84.296875 153.957031 84.632812 C 153.996094 84.746094 154.015625 84.800781 154.015625 84.800781 C 154.171875 85.234375 154.027344 85.722656 153.660156 86 C 153.285156 86.277344 152.78125 86.277344 152.40625 86.003906 C 151.167969 85.089844 150.214844 84.023438 149.382812 83.03125 C 149.273438 83.578125 149.070312 84.039062 148.730469 84.394531 C 148.316406 84.839844 147.738281 84.996094 147.339844 84.988281 C 146.792969 84.980469 146.472656 84.808594 146.390625 84.773438 C 146.015625 84.585938 145.789062 84.195312 145.808594 83.78125 C 145.816406 83.609375 145.867188 83.453125 145.945312 83.3125 C 145.914062 83.300781 145.878906 83.289062 145.84375 83.277344 C 143.816406 82.519531 142.4375 81 141.785156 80.152344 C 140.183594 80.492188 139.332031 80.765625 138.878906 80.96875 C 138.375 81.203125 138.375 81.269531 137.945312 81.625 C 137.671875 81.855469 137.277344 82.121094 136.707031 82.375 C 136.394531 82.496094 135.984375 82.9375 135.570312 83.578125 C 135.144531 84.207031 134.738281 84.964844 134.082031 85.605469 C 133.996094 85.6875 133.902344 85.765625 133.800781 85.84375 C 134.605469 85.660156 135.457031 85.296875 136.382812 84.710938 C 137.328125 84.105469 138.359375 83.910156 139.285156 83.910156 C 141.402344 83.925781 143.089844 84.859375 143.167969 84.890625 C 143.449219 85.042969 143.648438 85.3125 143.707031 85.625 C 143.765625 85.9375 143.679688 86.261719 143.46875 86.507812 C 143.449219 86.527344 143.433594 86.546875 143.417969 86.566406 C 143.425781 86.570312 143.433594 86.578125 143.4375 86.585938 Z M 175.90625 94.207031 C 176.03125 94.21875 176.453125 94.097656 176.9375 93.914062 C 176.988281 93.898438 177.035156 93.878906 177.082031 93.863281 C 176.550781 93.613281 176.070312 93.328125 175.628906 93.039062 C 175.074219 92.667969 174.566406 92.292969 174.128906 91.96875 C 174.699219 92.714844 175.378906 93.527344 175.894531 94.207031 C 175.894531 94.207031 175.902344 94.207031 175.90625 94.207031 Z M 166.367188 97.964844 C 166.722656 98.652344 167.105469 99.15625 167.316406 99.300781 C 167.804688 99.671875 168.300781 100.21875 168.855469 100.894531 C 167.824219 99.308594 166.773438 97.929688 165.796875 96.773438 C 165.988281 97.203125 166.175781 97.605469 166.367188 97.964844 Z M 162.707031 90.714844 C 162.78125 90.78125 169.25 95.78125 173.566406 105.054688 C 173.601562 105.035156 173.636719 105.015625 173.671875 104.992188 C 174.316406 104.601562 175.1875 104.019531 176.042969 103.296875 C 177.777344 101.839844 179.339844 99.835938 179.316406 97.722656 C 179.316406 97.605469 179.308594 97.476562 179.300781 97.355469 C 179.230469 96.371094 179.023438 95.847656 178.910156 95.695312 C 178.824219 95.601562 178.84375 95.601562 178.816406 95.601562 C 178.804688 95.601562 178.78125 95.605469 178.730469 95.597656 C 178.5625 95.585938 178.136719 95.707031 177.65625 95.886719 C 177.164062 96.058594 176.617188 96.292969 175.90625 96.308594 C 175.355469 96.328125 174.625 96.054688 174.21875 95.476562 C 173.488281 94.496094 172.1875 93.035156 171.484375 91.816406 C 171.257812 91.386719 171.046875 91.011719 171.03125 90.417969 C 171.011719 90.082031 171.175781 89.574219 171.558594 89.289062 C 171.933594 89 172.3125 88.957031 172.640625 88.953125 C 173.449219 88.972656 174.011719 89.335938 174.578125 89.703125 C 175.140625 90.082031 175.699219 90.53125 176.3125 90.964844 C 177.546875 91.832031 178.921875 92.589844 180.617188 92.589844 C 180.957031 92.589844 181.316406 92.558594 181.703125 92.492188 C 181.941406 92.449219 182.191406 92.492188 182.402344 92.609375 C 182.53125 92.667969 185.332031 94.304688 187.507812 98.6875 C 187.5 98.589844 187.488281 98.488281 187.476562 98.386719 C 183.40625 83.460938 171.984375 71.527344 157.359375 66.761719 C 156.363281 67.640625 155.191406 68.605469 154.164062 69.132812 C 153.695312 69.363281 153.132812 69.222656 152.832031 68.796875 C 152.832031 68.796875 152.828125 68.792969 152.828125 68.789062 C 152.816406 68.78125 152.796875 68.753906 152.757812 68.710938 C 152.675781 68.632812 152.535156 68.5 152.308594 68.351562 C 151.855469 68.050781 151.074219 67.664062 149.78125 67.464844 C 149.667969 67.445312 149.558594 67.429688 149.453125 67.410156 C 149.417969 67.707031 149.359375 67.738281 149.335938 67.832031 C 149.300781 67.914062 149.269531 67.980469 149.246094 68.050781 C 149.195312 68.183594 149.160156 68.316406 149.160156 68.460938 C 149.164062 68.605469 149.1875 68.761719 149.316406 69.003906 C 149.628906 69.597656 150.472656 70.164062 151.117188 70.785156 C 151.316406 71.015625 151.632812 71.277344 151.671875 71.953125 C 151.683594 72.398438 151.402344 72.824219 151.152344 73.007812 C 150.898438 73.210938 150.652344 73.3125 150.375 73.410156 C 149.832031 73.589844 149.128906 73.722656 148.097656 73.859375 C 147.132812 73.984375 146.332031 74.027344 145.648438 74.027344 C 144.25 74.023438 143.363281 73.851562 142.71875 73.859375 C 141.960938 73.871094 141.339844 73.988281 139.71875 75.023438 C 137.960938 76.160156 136.613281 76.722656 135.632812 76.988281 C 135.847656 77.449219 136.027344 77.988281 136.039062 78.617188 C 136.0625 79.273438 135.730469 80.09375 135.039062 80.554688 C 134.351562 81.019531 133.492188 81.195312 132.355469 81.203125 C 131.71875 81.203125 130.984375 81.136719 130.132812 81.007812 C 129.992188 81.34375 129.808594 82 129.808594 83.171875 C 129.8125 83.277344 129.8125 83.386719 129.8125 83.5 C 130.335938 83.578125 130.949219 83.785156 131.875 84.203125 C 132.054688 84.285156 132.164062 84.296875 132.230469 84.296875 C 132.335938 84.292969 132.414062 84.28125 132.632812 84.078125 C 132.84375 83.886719 133.105469 83.527344 133.378906 83.097656 C 133.953125 82.253906 134.535156 81.074219 135.855469 80.453125 C 136.28125 80.261719 136.441406 80.140625 136.609375 80.007812 C 136.765625 79.875 136.988281 79.652344 137.367188 79.402344 C 138.136719 78.910156 139.238281 78.519531 142.027344 77.957031 C 142.453125 77.871094 142.886719 78.054688 143.117188 78.425781 C 143.121094 78.425781 143.128906 78.441406 143.167969 78.496094 C 143.171875 78.5 143.171875 78.5 143.171875 78.503906 C 143.285156 78.148438 143.566406 77.808594 143.847656 77.695312 C 144.214844 77.511719 144.523438 77.492188 144.855469 77.488281 C 144.953125 77.488281 145.0625 77.488281 145.167969 77.496094 C 147.269531 77.644531 148.671875 78.980469 149.851562 80.332031 C 150.433594 81.003906 150.992188 81.699219 151.585938 82.371094 C 151.632812 82.125 151.710938 81.875 151.863281 81.617188 C 152.125 81.117188 152.804688 80.730469 153.417969 80.761719 C 153.695312 80.765625 153.964844 80.8125 154.238281 80.894531 C 154.121094 80.625 154.054688 80.324219 154.0625 80.011719 C 154.082031 78.957031 154.652344 77.984375 155.722656 76.875 C 155.832031 76.761719 155.964844 76.679688 156.117188 76.625 C 156.191406 76.601562 156.507812 76.484375 157 76.480469 C 157.339844 76.480469 157.789062 76.542969 158.234375 76.804688 C 158.78125 76.304688 159.625 75.890625 160.792969 75.742188 C 161.289062 75.675781 161.761719 75.972656 161.921875 76.445312 C 162.085938 76.921875 161.886719 77.445312 161.453125 77.695312 C 161.445312 77.699219 161.441406 77.703125 161.429688 77.710938 C 161.40625 77.726562 161.363281 77.753906 161.320312 77.789062 C 161.3125 77.800781 161.304688 77.804688 161.296875 77.808594 C 161.738281 77.957031 162.28125 78.148438 162.824219 78.371094 C 163.703125 78.765625 164.539062 79.101562 165.164062 79.859375 C 165.335938 80.089844 165.507812 80.417969 165.511719 80.839844 C 165.515625 81.246094 165.324219 81.628906 165.089844 81.875 C 164.417969 82.621094 163.507812 82.972656 162.710938 82.957031 C 161.820312 82.949219 161.097656 82.636719 160.492188 82.367188 L 160.929688 81.414062 L 160.480469 82.363281 C 160.269531 82.25 160.238281 82.210938 160.160156 82.164062 C 160.097656 82.121094 160.035156 82.082031 159.96875 82.046875 C 159.824219 81.980469 159.667969 81.917969 159.410156 81.917969 C 159.203125 81.917969 158.921875 81.960938 158.535156 82.125 C 158.144531 82.292969 157.730469 82.386719 157.316406 82.421875 C 157.84375 82.660156 158.261719 82.804688 158.707031 82.929688 C 159.605469 83.183594 160.746094 83.359375 162.980469 83.917969 C 163.3125 84 163.578125 84.238281 163.707031 84.550781 C 163.722656 84.617188 164.253906 85.914062 164.261719 87.425781 C 164.257812 88.1875 164.125 89.0625 163.535156 89.824219 C 163.28125 90.148438 162.949219 90.417969 162.550781 90.617188 C 162.605469 90.644531 162.65625 90.675781 162.707031 90.714844 Z M 138.707031 116.660156 L 139.429688 115.902344 Z M 143.347656 123.457031 C 143.492188 123.566406 144.269531 123.957031 144.871094 124.890625 C 145.699219 126.140625 146.976562 127.828125 146.972656 130.46875 C 146.96875 131.84375 146.636719 133.4375 145.839844 135.347656 C 145.519531 136.125 145.40625 136.722656 145.40625 137.210938 C 145.40625 137.824219 145.570312 138.300781 145.875 138.828125 C 146.179688 139.351562 146.644531 139.910156 147.164062 140.546875 C 148.203125 141.808594 149.46875 143.496094 149.667969 146.097656 C 149.75 147.183594 150.011719 147.734375 150.207031 147.953125 C 150.398438 148.160156 150.53125 148.207031 150.898438 148.222656 C 151.59375 148.25 152.765625 147.710938 153.707031 147.351562 C 154.042969 147.238281 154.34375 147.125 154.78125 147.113281 C 154.78125 147.113281 154.792969 147.113281 154.828125 147.109375 C 154.863281 147.105469 154.917969 147.089844 154.988281 147.074219 C 155.128906 147.035156 155.308594 146.972656 155.523438 146.890625 C 155.945312 146.722656 156.480469 146.460938 157.039062 146.148438 C 158.15625 145.519531 159.378906 144.648438 160.164062 143.816406 C 160.695312 143.269531 160.996094 142.734375 161.027344 142.464844 C 161.15625 141.785156 161.230469 141.429688 161.351562 141.117188 C 161.402344 141 161.425781 140.890625 161.617188 140.671875 C 161.726562 140.558594 161.96875 140.335938 162.414062 140.328125 C 162.621094 140.324219 162.808594 140.390625 162.949219 140.472656 C 163.316406 140.125 163.597656 139.710938 163.597656 139.085938 C 163.597656 138.878906 163.566406 138.632812 163.476562 138.339844 C 163.339844 137.898438 163.507812 137.421875 163.894531 137.160156 C 163.894531 137.160156 164.074219 137.035156 164.390625 136.804688 C 164.710938 136.574219 165.152344 136.242188 165.640625 135.851562 C 166.617188 135.066406 167.789062 134.011719 168.5 133.074219 C 168.984375 132.453125 169.203125 131.875 169.183594 131.683594 C 169.183594 131.65625 169.179688 131.628906 169.175781 131.609375 C 169.105469 131.167969 168.789062 130.421875 168.46875 129.511719 C 168.148438 128.601562 167.828125 127.492188 167.828125 126.207031 C 167.816406 123.910156 168.898438 121.210938 172.152344 118.300781 C 176.296875 114.53125 176.738281 112.117188 176.765625 110.25 C 176.765625 109.773438 176.726562 109.324219 176.691406 108.875 L 173.644531 109.941406 C 173.1875 110.101562 172.679688 109.925781 172.414062 109.519531 C 172.414062 109.515625 171.742188 108.476562 170.800781 107.101562 C 169.863281 105.726562 168.664062 104.019531 167.636719 102.722656 C 166.96875 101.867188 166.328125 101.171875 166.050781 100.976562 C 165.070312 100.199219 164.507812 98.996094 163.898438 97.671875 C 163.308594 96.351562 162.765625 94.902344 162.238281 93.804688 C 161.898438 93.074219 161.539062 92.496094 161.320312 92.289062 C 160.96875 91.941406 160.917969 91.40625 161.167969 90.996094 C 161.015625 91.011719 160.855469 91.015625 160.695312 91.015625 C 160.175781 91.015625 159.601562 90.945312 158.96875 90.804688 C 155.5 90.027344 154.1875 89.714844 153.820312 89.734375 C 153.695312 89.742188 153.722656 89.742188 153.632812 89.769531 C 153.550781 89.800781 153.363281 89.90625 153.054688 90.0625 C 153.050781 90.0625 153.050781 90.0625 153.050781 90.0625 C 153.050781 90.0625 153.050781 90.0625 153.03125 90.089844 C 153.007812 90.121094 152.960938 90.210938 152.902344 90.351562 C 152.777344 90.613281 152.675781 91.113281 152.160156 91.617188 C 151.808594 91.953125 151.261719 92.144531 150.738281 92.136719 C 149.90625 92.121094 149.03125 91.8125 147.710938 91.164062 C 146.382812 90.5 145.230469 89.972656 144.28125 89.507812 C 143.332031 89.035156 142.59375 88.652344 142.011719 88.128906 C 141.632812 87.785156 141.265625 87.265625 141.265625 86.59375 C 141.265625 86.519531 141.269531 86.445312 141.277344 86.371094 C 140.730469 86.1875 139.996094 86.011719 139.285156 86.011719 C 138.644531 86.011719 138.039062 86.144531 137.511719 86.480469 C 135.792969 87.582031 134.09375 88.101562 132.472656 88.101562 C 131.742188 88.101562 131.039062 87.996094 130.355469 87.800781 C 130.292969 87.828125 130.222656 87.855469 130.140625 87.886719 C 129.820312 88.019531 129.378906 88.222656 128.933594 88.5 C 128.03125 89.058594 127.175781 89.882812 126.957031 90.90625 C 126.710938 91.9375 126.058594 92.683594 125.371094 93.304688 C 124.667969 93.9375 123.878906 94.488281 123.101562 95.132812 C 121.558594 96.433594 120.085938 97.984375 119.46875 101.003906 C 119.1875 102.40625 119.046875 103.660156 119.046875 104.804688 C 119.070312 108.722656 120.601562 111.511719 124.679688 115.085938 C 125.441406 114.933594 126.914062 114.679688 128.402344 114.675781 C 129.21875 114.683594 130.046875 114.746094 130.820312 115.003906 C 131.515625 114.492188 132.816406 113.742188 134.578125 113.722656 C 135.914062 113.714844 137.457031 114.207031 138.964844 115.484375 C 139.296875 115.402344 139.730469 115.328125 140.21875 115.324219 C 140.902344 115.324219 141.773438 115.484375 142.484375 116.144531 C 143.195312 116.804688 143.578125 117.847656 143.570312 119.175781 C 143.570312 119.527344 143.546875 119.902344 143.496094 120.3125 C 143.34375 121.53125 143.277344 122.34375 143.277344 122.847656 C 143.277344 123.199219 143.3125 123.386719 143.332031 123.445312 C 143.335938 123.449219 143.339844 123.453125 143.347656 123.457031 Z M 148.613281 149.316406 C 147.996094 148.589844 147.683594 147.59375 147.574219 146.265625 C 147.445312 144.761719 146.929688 143.757812 146.257812 142.800781 C 145.582031 141.851562 144.722656 141.007812 144.0625 139.886719 C 143.625 139.148438 143.300781 138.246094 143.304688 137.210938 C 143.304688 136.390625 143.496094 135.507812 143.898438 134.542969 C 144.621094 132.8125 144.871094 131.503906 144.871094 130.46875 C 144.859375 128.515625 144.023438 127.410156 143.121094 126.050781 C 142.65625 125.390625 142.570312 125.523438 141.925781 125.003906 C 141.71875 124.832031 141.503906 124.546875 141.386719 124.238281 C 141.222656 123.820312 141.179688 123.390625 141.179688 122.847656 C 141.179688 122.175781 141.253906 121.308594 141.410156 120.054688 C 141.453125 119.722656 141.46875 119.429688 141.46875 119.175781 C 141.464844 118.195312 141.222656 117.84375 141.054688 117.679688 C 140.882812 117.515625 140.601562 117.429688 140.21875 117.429688 C 139.796875 117.421875 139.335938 117.550781 139.164062 117.609375 C 139.105469 117.628906 139.097656 117.632812 139.097656 117.632812 C 138.714844 117.785156 138.28125 117.703125 137.980469 117.421875 C 136.625 116.144531 135.507812 115.832031 134.578125 115.824219 C 133.140625 115.808594 131.980469 116.734375 131.769531 116.9375 C 131.746094 116.960938 131.746094 116.960938 131.746094 116.960938 C 131.410156 117.292969 130.894531 117.371094 130.484375 117.136719 C 130.117188 116.917969 129.292969 116.769531 128.402344 116.777344 C 127.0625 116.777344 125.578125 117.039062 124.949219 117.171875 C 124.738281 117.21875 124.628906 117.242188 124.628906 117.242188 C 124.304688 117.320312 123.960938 117.238281 123.707031 117.023438 C 119.132812 113.1875 116.917969 109.535156 116.945312 104.804688 C 116.945312 103.484375 117.109375 102.09375 117.40625 100.589844 C 118.464844 95.191406 122.300781 93.269531 123.964844 91.746094 C 124.53125 91.234375 124.816406 90.824219 124.90625 90.429688 C 125.34375 88.582031 126.695312 87.421875 127.828125 86.71875 C 127.945312 86.644531 128.0625 86.574219 128.175781 86.511719 C 128.128906 86.460938 128.097656 86.414062 128.074219 86.378906 C 127.988281 86.25 127.972656 86.179688 127.953125 86.125 C 127.917969 86.019531 127.910156 85.972656 127.898438 85.914062 C 127.878906 85.804688 127.863281 85.691406 127.851562 85.542969 C 127.816406 85.246094 127.78125 84.800781 127.742188 84.121094 C 127.71875 83.78125 127.707031 83.464844 127.707031 83.171875 C 127.683594 80.210938 128.757812 79.171875 129.132812 78.96875 C 129.34375 78.839844 129.609375 78.789062 129.855469 78.835938 C 130.90625 79.023438 131.734375 79.097656 132.355469 79.097656 C 133.261719 79.105469 133.714844 78.925781 133.835938 78.832031 C 133.945312 78.730469 133.914062 78.789062 133.9375 78.617188 C 133.949219 78.425781 133.8125 77.996094 133.605469 77.628906 C 133.40625 77.257812 133.164062 76.9375 133.082031 76.835938 C 133.058594 76.804688 133.050781 76.792969 133.050781 76.792969 C 132.757812 76.441406 132.726562 75.9375 132.980469 75.550781 C 133.214844 75.183594 133.660156 75 134.085938 75.097656 C 134.097656 75.097656 134.136719 75.101562 134.199219 75.101562 C 134.570312 75.105469 135.941406 74.964844 138.578125 73.257812 C 140.308594 72.121094 141.542969 71.746094 142.71875 71.757812 C 142.71875 71.757812 142.722656 71.757812 142.722656 71.757812 C 142.585938 71.601562 142.476562 71.433594 142.402344 71.273438 C 142.386719 71.246094 142.378906 71.222656 142.363281 71.195312 C 142.246094 71.207031 142.132812 71.210938 142.015625 71.210938 C 141.101562 71.242188 140.292969 70.710938 139.984375 70.121094 C 139.65625 69.546875 139.640625 69.03125 139.632812 68.753906 C 139.632812 68.632812 139.644531 68.550781 139.644531 68.519531 C 139.707031 67.960938 140.191406 67.554688 140.75 67.585938 C 140.960938 67.597656 141.15625 67.671875 141.316406 67.792969 C 141.59375 67.625 142.03125 67.296875 142.625 66.753906 C 144.066406 65.40625 145.375 64.835938 146.667969 64.851562 C 147.839844 64.867188 148.808594 65.199219 150.101562 65.390625 C 151.992188 65.675781 153.179688 66.34375 153.847656 66.875 C 154.625 66.351562 155.628906 65.503906 156.402344 64.800781 C 156.679688 64.550781 157.066406 64.464844 157.417969 64.574219 C 173.035156 69.441406 185.230469 82.0625 189.523438 97.917969 L 189.554688 98.078125 C 189.804688 100.332031 189.875 102.277344 189.875 103.742188 C 189.875 105.53125 189.769531 106.601562 189.765625 106.625 C 189.714844 107.160156 189.277344 107.566406 188.742188 107.578125 C 188.210938 107.585938 187.753906 107.195312 187.679688 106.667969 C 186.59375 98.617188 182.71875 95.390625 181.644531 94.625 C 181.34375 94.664062 181.046875 94.683594 180.753906 94.691406 C 181.125 95.332031 181.304688 96.121094 181.398438 97.199219 C 181.410156 97.367188 181.417969 97.542969 181.417969 97.722656 C 181.394531 100.871094 179.3125 103.273438 177.402344 104.898438 C 175.597656 106.421875 173.839844 107.316406 173.570312 107.453125 C 173.625 107.535156 173.675781 107.613281 173.726562 107.6875 L 177.355469 106.417969 C 177.695312 106.296875 178.074219 106.363281 178.355469 106.585938 C 178.640625 106.816406 178.785156 107.167969 178.746094 107.527344 C 178.738281 107.605469 178.730469 107.699219 178.730469 107.8125 C 178.726562 108.363281 178.859375 109.207031 178.867188 110.25 C 178.894531 112.628906 178.003906 115.902344 173.558594 119.859375 C 170.589844 122.554688 169.941406 124.574219 169.929688 126.207031 C 169.929688 127.140625 170.160156 128 170.453125 128.820312 C 170.734375 129.644531 171.085938 130.398438 171.246094 131.246094 C 171.269531 131.386719 171.28125 131.53125 171.28125 131.683594 C 171.261719 132.710938 170.761719 133.542969 170.167969 134.339844 C 169.566406 135.136719 168.804688 135.890625 168.054688 136.558594 C 167.132812 137.378906 166.222656 138.070312 165.65625 138.484375 C 165.683594 138.6875 165.699219 138.890625 165.699219 139.085938 C 165.703125 140.507812 164.941406 141.539062 164.269531 142.113281 C 163.789062 142.527344 163.339844 142.765625 163.085938 142.886719 C 162.777344 144.269531 161.738281 145.300781 160.578125 146.277344 C 159.390625 147.242188 158.011719 148.066406 156.859375 148.597656 C 156.070312 148.945312 155.480469 149.191406 154.792969 149.214844 L 154.792969 149.21875 C 154.78125 149.21875 154.753906 149.222656 154.722656 149.230469 C 154.652344 149.25 154.550781 149.28125 154.425781 149.328125 C 154.175781 149.414062 153.851562 149.550781 153.492188 149.695312 C 152.757812 149.980469 151.882812 150.316406 150.898438 150.324219 C 150.875 150.324219 150.859375 150.324219 150.839844 150.324219 C 150.089844 150.324219 149.210938 150.035156 148.613281 149.316406 " fill-opacity="1" fill-rule="nonzero"/></g><g clip-path="url(#e9a893172f)"><path fill="#a6a6a6" d="M 142.527344 157.335938 C 125.636719 157.3125 112.09375 146.941406 112.003906 146.894531 C 111.542969 146.542969 111.453125 145.882812 111.804688 145.421875 C 112.15625 144.960938 112.816406 144.871094 113.277344 145.222656 C 113.277344 145.222656 113.46875 145.363281 113.855469 145.636719 C 114.242188 145.910156 114.816406 146.296875 115.558594 146.769531 C 117.046875 147.707031 119.203125 148.964844 121.863281 150.222656 C 127.1875 152.738281 134.523438 155.238281 142.527344 155.238281 C 144.027344 155.234375 145.558594 155.148438 147.097656 154.957031 C 167.03125 152.453125 184.0625 139.257812 187.785156 116.34375 C 187.878906 115.769531 188.417969 115.378906 188.988281 115.472656 C 189.558594 115.566406 189.953125 116.105469 189.859375 116.679688 C 186.019531 140.539062 168.042969 154.507812 147.359375 157.042969 C 145.734375 157.242188 144.128906 157.335938 142.554688 157.335938 C 142.542969 157.335938 142.535156 157.335938 142.527344 157.335938 " fill-opacity="1" fill-rule="nonzero"/></g><g clip-path="url(#ff14cdc0d7)"><path fill="#ff914d" d="M 271.597656 50.214844 C 271.5 50.378906 271.390625 50.53125 271.28125 50.695312 C 270.675781 51.546875 269.960938 52.484375 269.191406 53.472656 C 268.503906 54.324219 267.777344 55.21875 266.992188 56.140625 L 267.761719 60.457031 L 268.09375 62.355469 L 268.613281 65.253906 L 268.863281 66.671875 L 269.109375 68.167969 L 269.371094 69.585938 L 269.519531 70.421875 L 270.058594 73.503906 L 270.277344 74.738281 L 270.289062 74.835938 L 270.828125 77.820312 L 270.976562 78.65625 L 271.046875 79.054688 L 271.609375 82.257812 C 271.679688 82.644531 271.691406 82.90625 271.664062 83.140625 L 271.664062 83.195312 C 271.597656 83.566406 271.375 83.882812 270.894531 84.5 C 270.8125 84.609375 270.714844 84.71875 270.632812 84.828125 C 270.359375 85.1875 270.222656 85.378906 270.113281 85.421875 L 270.070312 85.421875 C 269.960938 85.394531 269.90625 85.089844 269.699219 84.570312 C 269.21875 83.316406 268.738281 82.082031 268.214844 80.871094 C 268.132812 80.664062 268.035156 80.457031 267.953125 80.238281 C 267.679688 79.578125 267.390625 78.90625 267.089844 78.230469 C 266.925781 77.859375 266.757812 77.476562 266.582031 77.105469 C 266.457031 76.828125 266.332031 76.566406 266.210938 76.292969 L 264.492188 72.761719 L 263.652344 71.027344 C 262.566406 68.9375 261.441406 66.890625 260.257812 64.882812 C 260.082031 64.59375 259.917969 64.304688 259.738281 64.015625 C 258.980469 64.785156 258.238281 65.542969 257.484375 66.285156 C 257.414062 66.355469 257.332031 66.421875 257.265625 66.492188 C 255.671875 68.074219 254.0625 69.585938 252.566406 70.933594 C 251.726562 71.703125 250.902344 72.417969 250.132812 73.074219 C 249.980469 73.214844 249.816406 73.335938 249.664062 73.476562 L 249.679688 73.558594 L 249.886719 75.015625 L 250.171875 77.089844 L 250.203125 77.242188 L 250.433594 78.890625 L 250.53125 79.523438 L 250.710938 80.800781 L 250.941406 82.453125 C 250.984375 82.683594 250.914062 82.863281 250.792969 83.054688 C 250.515625 83.453125 250.285156 83.8125 250.035156 84.183594 C 249.996094 84.238281 249.953125 84.308594 249.914062 84.363281 C 249.832031 84.484375 249.746094 84.609375 249.664062 84.734375 C 249.554688 84.882812 249.554688 84.914062 249.460938 84.746094 C 249.390625 84.609375 249.320312 84.484375 249.265625 84.363281 L 249.253906 84.363281 C 249.199219 84.253906 249.144531 84.140625 249.089844 84.03125 L 248.621094 83.140625 C 248.402344 82.683594 248.167969 82.230469 247.933594 81.792969 C 247.726562 81.394531 247.523438 80.996094 247.316406 80.59375 C 247.152344 80.265625 246.984375 79.964844 246.820312 79.648438 C 246.820312 79.632812 246.820312 79.632812 246.820312 79.632812 C 246.628906 79.277344 246.449219 78.90625 246.257812 78.546875 C 246.203125 78.421875 246.132812 78.285156 246.066406 78.164062 L 245.640625 77.765625 L 245.171875 77.335938 L 244.210938 76.445312 L 243.277344 75.550781 L 242.410156 74.710938 L 242.394531 74.710938 L 240.871094 74.023438 C 240.828125 74.011719 240.789062 73.996094 240.761719 73.96875 C 239.605469 73.460938 238.4375 72.953125 237.285156 72.429688 C 236.984375 72.292969 236.679688 72.167969 236.378906 72.03125 C 236.128906 71.921875 235.882812 71.8125 235.636719 71.703125 C 235.457031 71.617188 235.5 71.605469 235.636719 71.480469 C 235.816406 71.359375 235.992188 71.21875 236.171875 71.097656 C 236.515625 70.820312 236.859375 70.558594 237.242188 70.273438 C 237.4375 70.132812 237.601562 70.050781 237.847656 70.078125 L 239.511719 70.21875 L 240.773438 70.328125 L 245.324219 70.699219 L 246.875 70.835938 C 247.589844 69.875 248.386719 68.84375 249.238281 67.769531 C 250.488281 66.230469 251.863281 64.59375 253.308594 62.929688 C 253.402344 62.820312 253.5 62.726562 253.582031 62.613281 C 254.28125 61.816406 254.996094 61.019531 255.710938 60.222656 C 253.375 58.984375 250.957031 57.832031 248.496094 56.71875 L 243.097656 54.476562 C 243 54.4375 242.90625 54.394531 242.808594 54.367188 C 240.15625 53.320312 237.4375 52.359375 234.632812 51.464844 C 233.617188 51.136719 233.449219 51.300781 234.316406 50.546875 C 234.414062 50.460938 234.523438 50.367188 234.632812 50.285156 C 235.566406 49.460938 235.757812 49.335938 236.652344 49.417969 L 236.84375 49.433594 L 237.066406 49.460938 C 237.148438 49.472656 237.242188 49.472656 237.324219 49.488281 L 244.554688 50.339844 L 245.652344 50.460938 L 248.757812 50.832031 L 253.964844 51.4375 L 256.90625 51.78125 L 263.160156 52.523438 C 264.039062 51.6875 264.875 50.902344 265.6875 50.175781 C 266.730469 49.238281 267.734375 48.402344 268.640625 47.699219 C 268.695312 47.660156 268.75 47.617188 268.804688 47.574219 C 270.371094 46.378906 271.679688 45.582031 272.597656 45.347656 C 272.984375 45.253906 273.300781 45.253906 273.535156 45.347656 C 273.945312 46.160156 273.148438 47.90625 271.597656 50.214844 " fill-opacity="1" fill-rule="evenodd"/></g><g clip-path="url(#51b1e7d1a9)"><path fill="#ff914d" d="M 214.679688 107.484375 C 214.035156 107.648438 213.390625 107.785156 212.757812 108.019531 C 211.710938 108.40625 210.777344 109.121094 209.816406 109.683594 C 208.867188 110.261719 207.894531 110.796875 206.890625 111.265625 C 205.734375 111.828125 204.539062 112.378906 203.304688 112.734375 C 202.988281 112.832031 202.601562 112.941406 202.191406 113.011719 C 202.109375 114.839844 201.929688 116.640625 201.683594 118.414062 C 197.613281 147.472656 172.648438 169.839844 142.472656 169.839844 C 123.46875 169.839844 106.527344 160.972656 95.574219 147.128906 C 106.855469 147.019531 117.792969 145.480469 128.207031 142.691406 C 128.222656 142.691406 128.222656 142.691406 128.222656 142.691406 C 129.527344 142.347656 130.820312 141.976562 132.097656 141.589844 C 125.363281 142.648438 118.480469 143.199219 111.457031 143.199219 C 104.765625 143.199219 98.183594 142.703125 91.769531 141.726562 C 86.394531 140.917969 81.117188 139.789062 75.980469 138.347656 C 77.160156 141.109375 78.507812 143.789062 80.019531 146.375 C 92.539062 167.875 115.816406 182.308594 142.472656 182.308594 C 181.910156 182.308594 213.964844 150.71875 214.722656 111.441406 C 214.734375 110.976562 214.734375 110.507812 214.734375 110.027344 C 214.734375 109.175781 214.707031 108.324219 214.679688 107.484375 " fill-opacity="1" fill-rule="evenodd"/></g><g clip-path="url(#4e0dabb18a)"><path fill="#000000" d="M 209.804688 83.714844 C 209.363281 82.617188 208.910156 81.515625 208.414062 80.445312 C 206.808594 76.84375 204.910156 73.40625 202.765625 70.160156 C 193.683594 56.441406 180.054688 46.007812 164.03125 41.003906 C 157.230469 38.886719 149.988281 37.734375 142.472656 37.734375 C 128.25 37.734375 114.976562 41.855469 103.792969 48.964844 C 99.460938 51.714844 95.449219 54.902344 91.808594 58.492188 C 86.875 63.34375 82.628906 68.910156 79.25 75.015625 C 78.289062 76.761719 77.382812 78.546875 76.558594 80.375 C 79.839844 82.988281 83.441406 85.199219 87.289062 86.988281 C 91.644531 89.023438 96.300781 90.480469 101.195312 91.289062 C 96.851562 89.0625 92.714844 86.464844 88.855469 83.539062 C 91.546875 78.09375 95.039062 73.132812 99.175781 68.773438 C 102.429688 65.363281 106.085938 62.328125 110.058594 59.753906 C 119.402344 53.722656 130.53125 50.214844 142.472656 50.214844 C 149.261719 50.214844 155.785156 51.34375 161.859375 53.433594 C 175.355469 58.050781 186.664062 67.359375 193.847656 79.414062 C 195.871094 82.78125 197.558594 86.355469 198.878906 90.121094 C 194.191406 92.390625 189.273438 94.246094 184.148438 95.605469 C 189.535156 95.25 194.769531 94.371094 199.8125 93.023438 C 200.03125 92.96875 200.253906 92.898438 200.457031 92.84375 C 204.292969 91.785156 208.015625 90.464844 211.601562 88.898438 C 211.066406 87.140625 210.460938 85.421875 209.804688 83.714844 " fill-opacity="1" fill-rule="evenodd"/></g><g clip-path="url(#c069472189)"><path fill="#ff914d" d="M 247 85.421875 C 240.828125 92.308594 233.519531 98.78125 225.207031 104.652344 C 224.902344 104.871094 224.589844 105.09375 224.285156 105.296875 C 224.050781 105.464844 223.820312 105.613281 223.597656 105.78125 C 222.347656 106.632812 221.097656 107.46875 219.820312 108.308594 C 219.558594 108.460938 219.296875 108.640625 219.035156 108.804688 C 218.417969 109.1875 217.785156 109.585938 217.152344 109.972656 C 216.34375 110.480469 215.546875 110.960938 214.722656 111.441406 C 214.652344 111.484375 214.597656 111.511719 214.53125 111.554688 C 214.324219 111.691406 214.105469 111.816406 213.898438 111.9375 C 209.980469 114.21875 205.914062 116.390625 201.683594 118.414062 C 201.339844 118.578125 200.996094 118.742188 200.652344 118.90625 C 190.070312 123.910156 178.582031 128.0625 166.355469 131.171875 C 166.355469 131.183594 166.355469 131.183594 166.355469 131.171875 C 161.117188 132.515625 155.730469 133.65625 150.25 134.59375 C 149.398438 134.742188 148.558594 134.882812 147.707031 135.019531 C 136.589844 136.777344 125.652344 137.601562 115.058594 137.519531 C 115.046875 137.519531 115.03125 137.519531 115.03125 137.519531 C 114.730469 137.535156 114.441406 137.535156 114.136719 137.519531 C 112.378906 137.507812 110.621094 137.480469 108.890625 137.410156 C 107.171875 137.34375 105.480469 137.257812 103.792969 137.148438 C 103.734375 137.136719 103.695312 137.136719 103.640625 137.136719 C 103.378906 137.121094 103.132812 137.109375 102.882812 137.082031 C 100.769531 136.945312 98.664062 136.75 96.589844 136.542969 C 93.816406 136.257812 91.066406 135.914062 88.359375 135.5 C 87.769531 135.402344 87.179688 135.308594 86.585938 135.210938 C 82.230469 134.511719 77.972656 133.65625 73.835938 132.640625 C 60.535156 129.398438 48.414062 124.613281 37.957031 118.523438 C 48.675781 121.683594 60.039062 124.078125 71.898438 125.617188 C 76.007812 126.136719 80.15625 126.566406 84.375 126.894531 C 84.621094 126.910156 84.871094 126.921875 85.117188 126.949219 C 88.429688 127.195312 91.769531 127.363281 95.148438 127.484375 C 96.90625 127.539062 98.679688 127.582031 100.4375 127.609375 C 100.699219 127.609375 100.945312 127.609375 101.179688 127.609375 C 101.398438 127.609375 101.632812 127.625 101.855469 127.625 C 102.292969 127.625 102.734375 127.625 103.171875 127.625 C 104.257812 127.625 105.34375 127.625 106.429688 127.625 C 106.964844 127.609375 107.5 127.609375 108.050781 127.597656 C 108.339844 127.597656 108.640625 127.582031 108.945312 127.582031 C 110.03125 127.554688 111.128906 127.527344 112.214844 127.484375 C 113.988281 127.429688 115.773438 127.347656 117.574219 127.265625 C 126.902344 126.769531 136.414062 125.78125 146.003906 124.253906 C 147.652344 123.992188 149.300781 123.71875 150.9375 123.429688 C 151.265625 123.375 151.597656 123.320312 151.925781 123.25 C 152.585938 123.140625 153.230469 123.019531 153.878906 122.894531 C 153.945312 122.878906 154.015625 122.867188 154.082031 122.851562 C 154.90625 122.703125 155.757812 122.535156 156.585938 122.371094 C 157.464844 122.191406 158.328125 122.015625 159.207031 121.835938 C 159.976562 121.683594 160.734375 121.519531 161.503906 121.339844 C 162.054688 121.230469 162.601562 121.105469 163.152344 120.984375 C 163.675781 120.875 164.195312 120.75 164.71875 120.625 C 165.597656 120.433594 166.464844 120.226562 167.34375 120.019531 C 168.070312 119.84375 168.785156 119.664062 169.515625 119.484375 C 170.3125 119.292969 171.109375 119.085938 171.90625 118.878906 C 172.125 118.8125 172.34375 118.757812 172.578125 118.703125 C 173.128906 118.550781 173.679688 118.414062 174.226562 118.261719 C 174.875 118.082031 175.53125 117.90625 176.179688 117.726562 C 176.578125 117.617188 176.976562 117.503906 177.359375 117.394531 C 177.566406 117.339844 177.773438 117.285156 177.964844 117.230469 C 178.171875 117.175781 178.378906 117.105469 178.582031 117.050781 C 179.175781 116.886719 179.75 116.707031 180.328125 116.542969 C 180.519531 116.488281 180.714844 116.433594 180.890625 116.378906 C 181.386719 116.226562 181.894531 116.074219 182.402344 115.925781 C 183.941406 115.457031 185.496094 114.960938 187.035156 114.46875 C 188.476562 114 189.90625 113.53125 191.335938 113.039062 C 193.410156 112.324219 195.457031 111.59375 197.492188 110.824219 C 197.601562 110.796875 197.695312 110.757812 197.808594 110.714844 C 197.875 110.6875 197.929688 110.671875 197.984375 110.644531 C 198.578125 110.425781 199.179688 110.207031 199.773438 109.972656 C 200.058594 109.863281 200.347656 109.738281 200.652344 109.628906 C 201.1875 109.421875 201.722656 109.214844 202.257812 108.996094 C 202.808594 108.777344 203.359375 108.554688 203.90625 108.335938 C 206.667969 107.222656 209.390625 106.070312 212.070312 104.859375 C 212.289062 104.761719 212.511719 104.667969 212.742188 104.554688 C 213.320312 104.308594 213.898438 104.046875 214.460938 103.785156 C 214.96875 103.550781 215.464844 103.320312 215.957031 103.085938 C 216.382812 102.894531 216.824219 102.6875 217.25 102.480469 C 217.523438 102.34375 217.800781 102.21875 218.0625 102.082031 C 219.902344 101.203125 221.714844 100.292969 223.515625 99.386719 C 223.585938 99.347656 223.652344 99.320312 223.707031 99.277344 C 223.914062 99.179688 224.105469 99.070312 224.3125 98.960938 C 232.351562 94.808594 239.921875 90.273438 247 85.421875 " fill-opacity="1" fill-rule="evenodd"/></g><path fill="#000000" d="M 227.433594 88.527344 C 224.589844 90.398438 221.621094 92.171875 218.527344 93.859375 C 217.085938 94.660156 215.601562 95.429688 214.105469 96.171875 C 213.898438 96.28125 213.679688 96.375 213.472656 96.488281 C 212.757812 96.84375 212.042969 97.175781 211.3125 97.519531 C 210.941406 97.695312 210.558594 97.875 210.175781 98.054688 C 210.117188 98.082031 210.050781 98.109375 209.980469 98.136719 C 209.96875 98.148438 209.941406 98.164062 209.914062 98.175781 C 209.253906 98.480469 208.59375 98.769531 207.921875 99.058594 C 207.808594 99.113281 207.6875 99.167969 207.550781 99.222656 C 207.054688 99.457031 206.546875 99.664062 206.039062 99.867188 C 205.695312 100.019531 205.335938 100.171875 204.980469 100.320312 C 204.390625 100.570312 203.769531 100.816406 203.152344 101.050781 C 202.726562 101.230469 202.273438 101.410156 201.847656 101.574219 C 201.792969 101.601562 201.738281 101.613281 201.683594 101.640625 C 201.433594 101.738281 201.199219 101.820312 200.941406 101.917969 C 200.789062 101.984375 200.636719 102.039062 200.472656 102.09375 C 200.058594 102.246094 199.648438 102.410156 199.207031 102.5625 C 199.140625 102.589844 199.058594 102.617188 198.976562 102.644531 C 198.246094 102.921875 197.503906 103.179688 196.761719 103.441406 C 196.035156 103.691406 195.304688 103.9375 194.578125 104.183594 C 193.300781 104.597656 192.007812 105.011719 190.714844 105.394531 C 190.6875 105.410156 190.675781 105.410156 190.648438 105.421875 C 190.234375 105.546875 189.824219 105.667969 189.410156 105.792969 C 188.765625 105.984375 188.105469 106.164062 187.460938 106.34375 C 187.40625 106.355469 187.351562 106.371094 187.296875 106.382812 C 186.691406 106.5625 186.058594 106.726562 185.441406 106.878906 C 184.464844 107.140625 183.476562 107.414062 182.472656 107.648438 C 181.785156 107.8125 181.097656 107.980469 180.398438 108.144531 C 179.492188 108.351562 178.554688 108.554688 177.636719 108.761719 C 177.621094 108.761719 177.621094 108.761719 177.609375 108.761719 C 177.070312 108.871094 176.523438 108.984375 175.984375 109.09375 C 173.03125 109.699219 170.023438 110.21875 166.972656 110.671875 C 164.128906 111.085938 161.285156 111.429688 158.480469 111.703125 C 157.65625 111.785156 156.859375 111.84375 156.046875 111.910156 C 155.292969 111.980469 154.523438 112.035156 153.765625 112.074219 C 153.710938 112.089844 153.65625 112.101562 153.589844 112.089844 C 153.039062 112.128906 152.460938 112.171875 151.898438 112.199219 C 151.597656 112.214844 151.292969 112.242188 150.992188 112.253906 C 150.289062 112.28125 149.578125 112.308594 148.875 112.335938 C 148.847656 112.335938 148.835938 112.351562 148.808594 112.335938 C 148.242188 112.363281 147.679688 112.378906 147.117188 112.40625 C 146.703125 112.40625 146.292969 112.417969 145.894531 112.433594 C 145.535156 112.433594 145.191406 112.433594 144.847656 112.433594 C 144.339844 112.445312 143.847656 112.445312 143.335938 112.445312 C 143.007812 112.460938 142.691406 112.445312 142.363281 112.445312 C 141.9375 112.445312 141.511719 112.445312 141.085938 112.433594 C 140.726562 112.433594 140.355469 112.433594 139.984375 112.417969 C 139.476562 112.417969 138.96875 112.40625 138.460938 112.390625 C 138.074219 112.378906 137.703125 112.363281 137.320312 112.351562 C 137.097656 112.351562 136.894531 112.335938 136.699219 112.324219 C 136.082031 112.308594 135.492188 112.28125 134.886719 112.242188 C 134.695312 112.242188 134.503906 112.242188 134.324219 112.214844 C 133.707031 112.1875 133.101562 112.144531 132.484375 112.101562 C 131.011719 112.007812 129.542969 111.882812 128.085938 111.746094 C 127.550781 111.691406 127.039062 111.648438 126.519531 111.582031 C 126.242188 111.566406 125.957031 111.527344 125.695312 111.5 C 124.195312 111.332031 122.738281 111.140625 121.285156 110.921875 C 120.554688 110.824219 119.828125 110.714844 119.113281 110.589844 C 118.660156 110.523438 118.207031 110.453125 117.765625 110.371094 C 117.382812 110.300781 116.984375 110.246094 116.597656 110.179688 C 115.898438 110.042969 115.210938 109.917969 114.523438 109.78125 C 114.136719 109.699219 113.765625 109.628906 113.394531 109.546875 C 113.023438 109.476562 112.640625 109.394531 112.269531 109.3125 C 111.816406 109.214844 111.363281 109.121094 110.910156 109.011719 C 110.746094 108.984375 110.566406 108.941406 110.386719 108.886719 C 109.878906 108.777344 109.355469 108.652344 108.847656 108.527344 C 108.65625 108.488281 108.464844 108.445312 108.269531 108.390625 C 107.695312 108.253906 107.101562 108.101562 106.511719 107.9375 C 105.894531 107.773438 105.273438 107.609375 104.644531 107.441406 C 104.492188 107.402344 104.339844 107.347656 104.191406 107.304688 C 103.625 107.140625 103.078125 106.976562 102.511719 106.8125 C 102.265625 106.742188 102.019531 106.660156 101.757812 106.589844 C 101.359375 106.453125 100.960938 106.34375 100.5625 106.207031 C 97.953125 105.382812 95.4375 104.472656 93.003906 103.484375 C 92.386719 103.25 91.78125 103.003906 91.175781 102.742188 C 89.804688 102.164062 88.441406 101.558594 87.125 100.914062 C 86.890625 100.804688 86.65625 100.707031 86.4375 100.597656 C 85.625 100.199219 84.828125 99.800781 84.03125 99.375 C 83.921875 99.320312 83.796875 99.25 83.675781 99.179688 C 79.621094 97.035156 75.882812 94.671875 72.476562 92.074219 C 67.390625 88.226562 63.078125 83.894531 59.640625 79.164062 C 61.140625 80.085938 62.691406 80.996094 64.273438 81.886719 C 67.363281 83.605469 70.632812 85.242188 74.042969 86.769531 C 77.421875 88.292969 80.953125 89.710938 84.636719 91.03125 C 84.882812 91.125 85.144531 91.222656 85.40625 91.304688 C 85.488281 91.332031 85.570312 91.359375 85.640625 91.386719 C 86.574219 91.714844 87.507812 92.03125 88.457031 92.347656 C 90.132812 92.898438 91.835938 93.433594 93.554688 93.945312 C 95.410156 94.492188 97.277344 95.015625 99.1875 95.511719 C 110.523438 98.480469 122.808594 100.527344 135.726562 101.492188 C 142.085938 101.972656 148.613281 102.179688 155.238281 102.09375 C 158.824219 102.039062 162.382812 101.929688 165.886719 101.710938 C 166.53125 101.683594 167.179688 101.640625 167.808594 101.601562 C 167.824219 101.601562 167.824219 101.585938 167.851562 101.601562 C 169.019531 101.519531 170.1875 101.4375 171.34375 101.339844 C 171.945312 101.285156 172.523438 101.230469 173.113281 101.175781 C 174.171875 101.078125 175.21875 100.980469 176.261719 100.871094 C 181.949219 100.265625 187.5 99.46875 192.886719 98.464844 C 193.164062 98.410156 193.4375 98.355469 193.710938 98.300781 C 196.117188 97.847656 198.480469 97.351562 200.800781 96.816406 C 200.816406 96.816406 200.84375 96.804688 200.859375 96.804688 C 202.21875 96.488281 203.578125 96.171875 204.910156 95.828125 C 206.601562 95.402344 208.265625 94.960938 209.914062 94.507812 C 210.132812 94.4375 210.351562 94.382812 210.574219 94.316406 C 211.011719 94.191406 211.453125 94.054688 211.890625 93.929688 C 212.222656 93.832031 212.550781 93.738281 212.867188 93.640625 C 214.707031 93.089844 216.523438 92.515625 218.308594 91.910156 C 221.441406 90.851562 224.492188 89.722656 227.433594 88.527344 " fill-opacity="1" fill-rule="evenodd"/><g fill="#000000" fill-opacity="1"><g transform="translate(125.655933, 97.789549)"><g><path d="M 32.328125 -41.421875 L 32.328125 -37.296875 L 19.359375 -37.296875 L 19.359375 0 L 14.515625 0 L 14.515625 -37.296875 L 1.53125 -37.296875 L 1.53125 -41.421875 Z M 32.328125 -41.421875 "/></g></g></g><g fill="#ff914d" fill-opacity="1"><g transform="translate(144.413973, 165.280206)"><g><path d="M 9.390625 -28.671875 L 9.390625 -4.75 L 22.28125 -4.75 L 22.28125 0 L 3.734375 0 L 3.734375 -28.671875 Z M 9.390625 -28.671875 "/></g></g></g></svg>