<svg xmlns="http://www.w3.org/2000/svg" xmlns:xlink="http://www.w3.org/1999/xlink" width="322" zoomAndPan="magnify" viewBox="0 0 241.5 177.000001" height="236" preserveAspectRatio="xMidYMid meet" version="1.0"><defs><g/><clipPath id="636799398f"><path d="M 94 54.207031 L 108 54.207031 L 108 60 L 94 60 Z M 94 54.207031 " clip-rule="nonzero"/></clipPath><clipPath id="c1d28aaa2b"><path d="M 76.714844 86 L 85 86 L 85 107 L 76.714844 107 Z M 76.714844 86 " clip-rule="nonzero"/></clipPath><clipPath id="e610b0b9b3"><path d="M 92 55.4375 L 143.222656 55.4375 L 143.222656 115.773438 L 92 115.773438 Z M 92 55.4375 " clip-rule="nonzero"/></clipPath><clipPath id="30f7212d1e"><path d="M 88.207031 91.207031 L 143.222656 91.207031 L 143.222656 120.691406 L 88.207031 120.691406 Z M 88.207031 91.207031 " clip-rule="nonzero"/></clipPath><clipPath id="d07fd2addb"><path d="M 175 42 L 203.320312 42 L 203.320312 72 L 175 72 Z M 175 42 " clip-rule="nonzero"/></clipPath><clipPath id="2c14ff0449"><path d="M 64 86 L 162 86 L 162 139.113281 L 64 139.113281 Z M 64 86 " clip-rule="nonzero"/></clipPath><clipPath id="0cf8335c41"><path d="M 65 37.527344 L 160 37.527344 L 160 79 L 65 79 Z M 65 37.527344 " clip-rule="nonzero"/></clipPath><clipPath id="2cf48664fd"><path d="M 38.160156 71 L 185 71 L 185 108 L 38.160156 108 Z M 38.160156 71 " clip-rule="nonzero"/></clipPath></defs><path fill="#ff914d" d="M 131.269531 105.054688 C 131.136719 105.242188 131.148438 105.277344 131.144531 105.359375 C 131.132812 105.457031 131.207031 105.65625 131.21875 106.050781 C 131.21875 106.070312 131.21875 106.09375 131.21875 106.113281 C 131.574219 105.507812 131.890625 104.878906 132.164062 104.285156 C 131.664062 104.621094 131.390625 104.882812 131.269531 105.054688 Z M 128.664062 109.484375 C 128.539062 109.238281 128.53125 109.046875 128.523438 108.867188 C 128.53125 108.398438 128.667969 107.933594 128.863281 107.453125 C 129.066406 106.976562 129.316406 106.519531 129.671875 106.15625 C 129.734375 106.09375 129.742188 106.066406 129.742188 106.066406 C 129.742188 106.0625 129.742188 106.066406 129.746094 106.050781 C 129.757812 106.003906 129.675781 105.765625 129.667969 105.359375 C 129.660156 105.007812 129.785156 104.5625 130.085938 104.171875 C 130.382812 103.777344 130.820312 103.398438 131.492188 102.964844 L 131.894531 103.582031 L 131.492188 102.964844 C 132.316406 102.429688 132.617188 102.0625 132.710938 101.898438 C 132.800781 101.703125 132.75 101.8125 132.8125 101.433594 C 132.835938 101.324219 132.90625 101.132812 133.054688 100.984375 C 133.230469 100.8125 133.425781 100.746094 133.566406 100.71875 C 133.734375 100.683594 133.878906 100.679688 134.058594 100.679688 C 134.289062 100.679688 134.507812 100.789062 134.648438 100.976562 C 134.789062 101.160156 134.832031 101.40625 134.765625 101.625 C 134.746094 101.667969 133.527344 105.878906 131.226562 108.691406 C 130.90625 109.078125 130.640625 109.363281 130.386719 109.570312 C 130.128906 109.765625 129.90625 109.945312 129.476562 109.964844 C 129.460938 109.964844 129.449219 109.964844 129.433594 109.964844 C 129.125 109.964844 128.769531 109.722656 128.664062 109.484375 " fill-opacity="1" fill-rule="nonzero"/><g clip-path="url(#636799398f)"><path fill="#ff914d" d="M 99.964844 57.28125 C 100.664062 57.144531 101.421875 57.007812 102.226562 56.886719 C 103.09375 56.742188 103.644531 56.484375 104.089844 56.167969 C 102.683594 56.449219 101.304688 56.824219 99.964844 57.28125 Z M 94.753906 59.769531 C 94.554688 59.59375 94.464844 59.324219 94.523438 59.066406 C 94.589844 58.808594 94.71875 58.613281 95.09375 58.265625 C 95.472656 57.921875 96.125 57.4375 97.335938 56.71875 L 97.429688 56.671875 C 100.289062 55.472656 103.34375 54.660156 106.535156 54.292969 C 106.894531 54.25 107.230469 54.476562 107.328125 54.824219 C 107.429688 55.175781 107.257812 55.539062 106.933594 55.695312 C 106.558594 55.851562 106.15625 56.332031 105.503906 56.925781 C 104.855469 57.511719 103.902344 58.125 102.453125 58.339844 C 99.289062 58.832031 96.929688 59.476562 95.960938 59.769531 C 95.636719 59.863281 95.476562 59.917969 95.476562 59.917969 C 95.402344 59.945312 95.320312 59.957031 95.242188 59.957031 C 95.066406 59.957031 94.890625 59.890625 94.753906 59.769531 " fill-opacity="1" fill-rule="nonzero"/></g><path fill="#ff914d" d="M 104.019531 63.320312 C 103.726562 63.300781 103.46875 63.117188 103.367188 62.839844 C 103.261719 62.558594 103.335938 62.25 103.546875 62.046875 C 103.546875 62.046875 103.582031 62.015625 103.640625 61.957031 C 103.699219 61.894531 103.78125 61.808594 103.867188 61.710938 C 103.988281 61.578125 104.109375 61.40625 104.175781 61.296875 C 104.050781 61.066406 103.886719 60.742188 103.867188 60.28125 C 103.859375 60.035156 103.960938 59.667969 104.242188 59.433594 C 104.523438 59.199219 104.847656 59.144531 105.148438 59.140625 C 105.304688 59.140625 105.460938 59.15625 105.628906 59.1875 C 105.976562 59.242188 106.234375 59.539062 106.246094 59.890625 C 106.246094 60.046875 106.203125 60.195312 106.121094 60.320312 C 106.289062 60.464844 106.460938 60.617188 106.625 60.820312 C 106.894531 61.140625 107.082031 61.601562 107.113281 62.121094 L 107.109375 62.261719 C 107.097656 62.511719 106.847656 62.886719 106.464844 63.050781 C 106.078125 63.230469 105.558594 63.332031 104.664062 63.335938 C 104.46875 63.335938 104.253906 63.328125 104.019531 63.320312 " fill-opacity="1" fill-rule="nonzero"/><path fill="#ff914d" d="M 102.621094 63.042969 C 102.402344 63.042969 102.171875 63.011719 101.9375 62.941406 L 102.140625 62.234375 L 101.933594 62.941406 C 101.757812 62.886719 101.585938 62.820312 101.410156 62.675781 C 101.234375 62.539062 101.066406 62.246094 101.074219 61.964844 C 101.109375 61.441406 101.371094 61.253906 101.550781 61.078125 C 101.753906 60.917969 101.972656 60.792969 102.207031 60.679688 C 102.683594 60.460938 103.148438 60.292969 103.636719 60.28125 C 103.769531 60.285156 103.921875 60.289062 104.132812 60.394531 C 104.351562 60.472656 104.617188 60.832031 104.59375 61.140625 C 104.59375 61.285156 104.5625 61.398438 104.523438 61.492188 C 104.484375 61.628906 104.398438 61.894531 104.203125 62.1875 C 103.960938 62.574219 103.410156 63.042969 102.644531 63.042969 C 102.636719 63.042969 102.628906 63.042969 102.621094 63.042969 " fill-opacity="1" fill-rule="nonzero"/><g clip-path="url(#c1d28aaa2b)"><path fill="#ff914d" d="M 82.320312 103.558594 C 82.203125 102.949219 82.125 102.277344 82.125 101.585938 C 82.125 100.90625 82.199219 100.203125 82.394531 99.515625 C 82.675781 98.511719 82.746094 97.832031 82.746094 97.40625 C 82.746094 97.292969 82.742188 97.199219 82.734375 97.125 L 82.214844 97.042969 C 81.921875 96.996094 81.683594 96.78125 81.613281 96.496094 C 81.421875 95.746094 81.003906 95.300781 80.554688 94.984375 C 80.109375 94.675781 79.636719 94.539062 79.476562 94.5 C 79.429688 94.488281 79.421875 94.488281 79.421875 94.488281 C 79.089844 94.433594 78.839844 94.160156 78.8125 93.828125 C 78.777344 93.429688 78.695312 93.164062 78.605469 92.976562 C 79.222656 96.765625 80.5 100.332031 82.320312 103.558594 Z M 82.433594 106.554688 C 78.824219 101.183594 76.714844 94.71875 76.714844 87.777344 C 76.714844 87.597656 76.722656 87.445312 76.722656 87.316406 C 76.726562 87.003906 76.929688 86.730469 77.226562 86.628906 C 77.527344 86.53125 77.851562 86.628906 78.046875 86.878906 C 78.523438 87.5 79.230469 88.667969 79.234375 90.230469 C 79.234375 90.589844 79.195312 90.960938 79.109375 91.347656 C 79.175781 91.394531 79.246094 91.449219 79.316406 91.507812 C 79.699219 91.835938 80.050781 92.390625 80.210938 93.179688 C 80.460938 93.265625 80.773438 93.394531 81.109375 93.589844 C 81.75 93.960938 82.496094 94.621094 82.894531 95.65625 L 83.445312 95.742188 C 83.660156 95.777344 83.851562 95.902344 83.964844 96.089844 C 84.042969 96.214844 84.222656 96.613281 84.222656 97.40625 C 84.222656 97.992188 84.125 98.808594 83.8125 99.917969 L 83.105469 99.71875 L 83.8125 99.921875 C 83.664062 100.445312 83.597656 101.015625 83.597656 101.585938 C 83.597656 102.46875 83.753906 103.355469 83.949219 104.058594 C 84.132812 104.753906 84.402344 105.316406 84.46875 105.382812 C 84.65625 105.636719 84.664062 105.984375 84.480469 106.246094 C 84.300781 106.503906 83.972656 106.621094 83.671875 106.53125 C 83.539062 106.742188 83.316406 106.871094 83.066406 106.878906 C 83.0625 106.878906 83.054688 106.878906 83.046875 106.878906 C 82.800781 106.878906 82.570312 106.757812 82.433594 106.554688 " fill-opacity="1" fill-rule="nonzero"/></g><g clip-path="url(#e610b0b9b3)"><path fill="#ff914d" d="M 112.289062 59.648438 C 112.292969 59.648438 112.289062 59.648438 112.289062 59.648438 Z M 111.144531 59.410156 C 111.152344 59.464844 111.175781 59.539062 111.203125 59.59375 C 111.289062 59.703125 111.253906 59.757812 111.617188 59.785156 C 111.683594 59.785156 111.765625 59.777344 111.859375 59.765625 C 111.707031 59.550781 111.523438 59.253906 111.511719 58.800781 C 111.507812 58.488281 111.640625 58.152344 111.855469 57.910156 C 112.074219 57.664062 112.347656 57.476562 112.695312 57.296875 C 112.730469 57.28125 112.761719 57.265625 112.792969 57.25 C 112.332031 57.277344 111.902344 57.425781 111.050781 58.191406 C 110.871094 58.359375 110.703125 58.503906 110.546875 58.628906 C 110.648438 58.652344 110.746094 58.691406 110.832031 58.753906 C 111.019531 58.890625 111.136719 59.113281 111.136719 59.347656 C 111.136719 59.359375 111.140625 59.382812 111.144531 59.410156 Z M 113.054688 58.902344 C 113.125 59.015625 113.253906 59.164062 113.386719 59.375 C 113.46875 59.519531 113.582031 59.703125 113.589844 60.019531 C 113.597656 60.25 113.488281 60.496094 113.339844 60.675781 C 113.457031 60.660156 113.578125 60.648438 113.707031 60.632812 C 113.992188 60.597656 114.242188 60.558594 114.445312 60.519531 C 114.125 60.25 113.742188 59.898438 113.464844 59.402344 C 113.332031 59.167969 113.25 58.925781 113.207031 58.699219 C 113.109375 58.753906 113.046875 58.800781 113.011719 58.835938 C 113.023438 58.855469 113.035156 58.878906 113.054688 58.902344 Z M 124.152344 67.003906 C 124.242188 67.003906 124.3125 66.992188 124.390625 66.96875 C 124.25 66.890625 124.078125 66.800781 123.894531 66.722656 C 123.308594 66.457031 122.601562 66.230469 122.269531 66.132812 C 122.050781 66.066406 121.878906 65.902344 121.796875 65.691406 C 121.699219 65.9375 121.476562 66.121094 121.207031 66.15625 C 120.855469 66.203125 120.519531 65.996094 120.40625 65.660156 C 120.34375 65.476562 120.296875 65.453125 120.273438 65.4375 C 120.25 65.421875 120.207031 65.410156 120.144531 65.40625 C 119.648438 65.953125 119.546875 66.320312 119.558594 66.414062 C 119.570312 66.488281 119.546875 66.453125 119.628906 66.523438 C 119.707031 66.578125 119.90625 66.640625 120.128906 66.640625 C 120.3125 66.640625 120.503906 66.601562 120.644531 66.542969 C 121.074219 66.355469 121.476562 66.273438 121.835938 66.277344 C 122.5625 66.269531 123.074219 66.621094 123.238281 66.734375 C 123.242188 66.738281 123.246094 66.738281 123.246094 66.742188 C 123.601562 66.902344 123.929688 67.007812 124.152344 67.003906 Z M 110.625 71.027344 C 110.730469 71.128906 110.964844 71.285156 111.300781 71.464844 C 111.96875 71.824219 113.007812 72.285156 114.285156 72.921875 C 115.117188 73.34375 115.605469 73.457031 115.75 73.445312 C 115.753906 73.445312 115.761719 73.445312 115.761719 73.445312 C 115.8125 73.367188 115.882812 73.117188 116.050781 72.800781 C 116.171875 72.578125 116.390625 72.308594 116.714844 72.148438 C 116.890625 72.0625 117.023438 71.984375 117.21875 71.902344 C 117.410156 71.816406 117.664062 71.761719 117.914062 71.765625 C 118.605469 71.777344 119.390625 72.011719 121.84375 72.546875 C 122.207031 72.628906 122.507812 72.664062 122.742188 72.664062 C 123.304688 72.652344 123.460938 72.515625 123.574219 72.382812 C 123.691406 72.246094 123.773438 71.96875 123.769531 71.617188 C 123.773438 71.222656 123.675781 70.785156 123.589844 70.484375 C 122.328125 70.183594 121.648438 70.074219 120.949219 69.882812 C 120.183594 69.671875 119.484375 69.359375 118.226562 68.652344 C 118.039062 68.542969 117.886719 68.480469 117.785156 68.449219 C 117.785156 68.464844 117.785156 68.480469 117.785156 68.496094 C 117.78125 68.84375 117.929688 69.421875 118.007812 69.65625 C 118.035156 69.738281 118.050781 69.773438 118.050781 69.773438 C 118.160156 70.078125 118.058594 70.421875 117.800781 70.617188 C 117.539062 70.8125 117.183594 70.8125 116.917969 70.621094 C 116.050781 69.976562 115.382812 69.226562 114.796875 68.53125 C 114.722656 68.917969 114.578125 69.238281 114.339844 69.492188 C 114.050781 69.800781 113.644531 69.914062 113.363281 69.90625 C 112.980469 69.898438 112.757812 69.777344 112.695312 69.753906 C 112.4375 69.621094 112.273438 69.351562 112.289062 69.058594 C 112.296875 68.9375 112.328125 68.828125 112.386719 68.730469 C 112.363281 68.722656 112.339844 68.710938 112.3125 68.703125 C 110.890625 68.171875 109.921875 67.105469 109.464844 66.511719 C 108.339844 66.75 107.742188 66.941406 107.425781 67.082031 C 107.070312 67.25 107.070312 67.292969 106.769531 67.546875 C 106.578125 67.707031 106.300781 67.894531 105.902344 68.070312 C 105.679688 68.15625 105.390625 68.46875 105.101562 68.914062 C 104.804688 69.355469 104.519531 69.890625 104.058594 70.335938 C 104 70.398438 103.933594 70.453125 103.859375 70.507812 C 104.425781 70.378906 105.023438 70.125 105.671875 69.710938 C 106.335938 69.285156 107.0625 69.148438 107.710938 69.152344 C 109.195312 69.160156 110.382812 69.816406 110.433594 69.835938 C 110.632812 69.945312 110.773438 70.132812 110.8125 70.355469 C 110.855469 70.574219 110.792969 70.800781 110.648438 70.972656 C 110.632812 70.988281 110.621094 71 110.613281 71.011719 C 110.617188 71.015625 110.621094 71.019531 110.625 71.027344 Z M 133.417969 76.378906 C 133.503906 76.386719 133.800781 76.300781 134.140625 76.171875 C 134.175781 76.160156 134.207031 76.148438 134.242188 76.136719 C 133.871094 75.960938 133.53125 75.757812 133.222656 75.558594 C 132.832031 75.296875 132.476562 75.03125 132.171875 74.804688 C 132.570312 75.332031 133.046875 75.902344 133.40625 76.378906 C 133.410156 76.378906 133.414062 76.378906 133.417969 76.378906 Z M 126.71875 79.015625 C 126.96875 79.496094 127.238281 79.851562 127.386719 79.953125 C 127.730469 80.214844 128.078125 80.597656 128.46875 81.070312 C 127.742188 79.957031 127.003906 78.992188 126.320312 78.179688 C 126.453125 78.480469 126.585938 78.761719 126.71875 79.015625 Z M 124.152344 73.925781 C 124.203125 73.972656 128.742188 77.484375 131.773438 83.992188 C 131.796875 83.976562 131.824219 83.964844 131.847656 83.949219 C 132.300781 83.671875 132.914062 83.265625 133.511719 82.757812 C 134.730469 81.734375 135.828125 80.328125 135.808594 78.84375 C 135.808594 78.761719 135.804688 78.671875 135.800781 78.585938 C 135.75 77.898438 135.605469 77.527344 135.523438 77.421875 C 135.464844 77.355469 135.476562 77.355469 135.460938 77.355469 C 135.449219 77.355469 135.433594 77.359375 135.398438 77.351562 C 135.28125 77.34375 134.984375 77.429688 134.648438 77.554688 C 134.300781 77.675781 133.917969 77.84375 133.417969 77.851562 C 133.03125 77.867188 132.519531 77.675781 132.234375 77.269531 C 131.71875 76.578125 130.804688 75.554688 130.3125 74.699219 C 130.15625 74.398438 130.007812 74.136719 129.992188 73.71875 C 129.980469 73.480469 130.097656 73.125 130.367188 72.921875 C 130.628906 72.722656 130.894531 72.691406 131.125 72.6875 C 131.691406 72.703125 132.085938 72.957031 132.484375 73.214844 C 132.878906 73.480469 133.273438 73.796875 133.703125 74.101562 C 134.566406 74.710938 135.53125 75.242188 136.722656 75.242188 C 136.960938 75.242188 137.214844 75.21875 137.488281 75.171875 C 137.652344 75.144531 137.828125 75.171875 137.976562 75.253906 C 138.066406 75.296875 140.03125 76.445312 141.5625 79.523438 C 141.554688 79.453125 141.546875 79.382812 141.539062 79.3125 C 138.683594 68.832031 130.664062 60.457031 120.398438 57.109375 C 119.699219 57.730469 118.875 58.40625 118.152344 58.773438 C 117.824219 58.9375 117.429688 58.839844 117.21875 58.539062 C 117.21875 58.539062 117.21875 58.539062 117.21875 58.535156 C 117.210938 58.527344 117.195312 58.507812 117.167969 58.480469 C 117.109375 58.425781 117.011719 58.332031 116.851562 58.226562 C 116.535156 58.015625 115.984375 57.746094 115.078125 57.605469 C 115 57.59375 114.921875 57.582031 114.847656 57.566406 C 114.824219 57.773438 114.78125 57.796875 114.765625 57.863281 C 114.742188 57.921875 114.71875 57.96875 114.703125 58.015625 C 114.667969 58.109375 114.644531 58.203125 114.644531 58.304688 C 114.644531 58.40625 114.660156 58.515625 114.753906 58.683594 C 114.96875 59.101562 115.5625 59.5 116.015625 59.933594 C 116.15625 60.097656 116.378906 60.28125 116.40625 60.753906 C 116.414062 61.070312 116.214844 61.367188 116.042969 61.496094 C 115.859375 61.640625 115.691406 61.710938 115.496094 61.777344 C 115.113281 61.90625 114.621094 61.996094 113.894531 62.09375 C 113.21875 62.179688 112.65625 62.214844 112.175781 62.214844 C 111.195312 62.207031 110.570312 62.089844 110.121094 62.09375 C 109.585938 62.101562 109.152344 62.183594 108.015625 62.910156 C 106.777344 63.710938 105.835938 64.105469 105.144531 64.289062 C 105.296875 64.613281 105.425781 64.992188 105.429688 65.433594 C 105.449219 65.894531 105.214844 66.46875 104.730469 66.792969 C 104.246094 67.121094 103.644531 67.246094 102.84375 67.246094 C 102.398438 67.246094 101.882812 67.203125 101.285156 67.113281 C 101.1875 67.347656 101.058594 67.808594 101.058594 68.628906 C 101.058594 68.703125 101.058594 68.78125 101.0625 68.863281 C 101.425781 68.914062 101.859375 69.0625 102.507812 69.355469 C 102.636719 69.410156 102.710938 69.421875 102.757812 69.421875 C 102.832031 69.417969 102.886719 69.410156 103.042969 69.265625 C 103.1875 69.132812 103.371094 68.878906 103.5625 68.578125 C 103.964844 67.988281 104.375 67.15625 105.304688 66.722656 C 105.601562 66.585938 105.710938 66.503906 105.832031 66.410156 C 105.941406 66.316406 106.097656 66.160156 106.363281 65.984375 C 106.90625 65.640625 107.675781 65.367188 109.636719 64.96875 C 109.933594 64.910156 110.238281 65.039062 110.402344 65.296875 C 110.402344 65.296875 110.410156 65.3125 110.433594 65.347656 C 110.4375 65.351562 110.4375 65.351562 110.4375 65.351562 C 110.515625 65.105469 110.714844 64.867188 110.910156 64.789062 C 111.171875 64.65625 111.386719 64.644531 111.621094 64.640625 C 111.6875 64.640625 111.765625 64.640625 111.839844 64.648438 C 113.316406 64.75 114.296875 65.6875 115.128906 66.636719 C 115.535156 67.109375 115.929688 67.597656 116.34375 68.066406 C 116.375 67.894531 116.433594 67.71875 116.539062 67.539062 C 116.722656 67.1875 117.203125 66.917969 117.628906 66.9375 C 117.824219 66.941406 118.015625 66.972656 118.207031 67.035156 C 118.125 66.84375 118.078125 66.632812 118.082031 66.414062 C 118.097656 65.671875 118.496094 64.988281 119.246094 64.210938 C 119.324219 64.132812 119.417969 64.074219 119.527344 64.035156 C 119.578125 64.015625 119.800781 63.9375 120.144531 63.933594 C 120.382812 63.933594 120.699219 63.976562 121.011719 64.160156 C 121.398438 63.8125 121.988281 63.519531 122.808594 63.414062 C 123.15625 63.367188 123.488281 63.578125 123.601562 63.910156 C 123.714844 64.242188 123.574219 64.613281 123.269531 64.789062 L 123.269531 64.785156 C 123.265625 64.789062 123.261719 64.792969 123.253906 64.796875 C 123.238281 64.808594 123.207031 64.828125 123.179688 64.851562 C 123.171875 64.859375 123.167969 64.863281 123.160156 64.867188 C 123.472656 64.96875 123.851562 65.105469 124.234375 65.261719 C 124.851562 65.535156 125.4375 65.773438 125.875 66.304688 C 125.996094 66.464844 126.117188 66.699219 126.121094 66.992188 C 126.125 67.277344 125.988281 67.550781 125.824219 67.71875 C 125.351562 68.246094 124.714844 68.492188 124.152344 68.480469 C 123.53125 68.476562 123.019531 68.257812 122.597656 68.066406 L 122.90625 67.398438 L 122.589844 68.0625 C 122.441406 67.984375 122.417969 67.957031 122.363281 67.921875 C 122.320312 67.894531 122.277344 67.867188 122.226562 67.839844 C 122.128906 67.792969 122.015625 67.753906 121.835938 67.75 C 121.691406 67.75 121.496094 67.78125 121.222656 67.894531 C 120.949219 68.015625 120.660156 68.082031 120.367188 68.105469 C 120.738281 68.273438 121.03125 68.371094 121.34375 68.460938 C 121.976562 68.636719 122.773438 68.761719 124.34375 69.15625 C 124.574219 69.210938 124.761719 69.378906 124.851562 69.597656 C 124.863281 69.644531 125.238281 70.558594 125.242188 71.617188 C 125.242188 72.152344 125.148438 72.765625 124.734375 73.300781 C 124.554688 73.527344 124.320312 73.71875 124.042969 73.855469 C 124.082031 73.878906 124.117188 73.898438 124.152344 73.925781 Z M 107.304688 92.140625 L 107.8125 91.605469 Z M 110.5625 96.910156 C 110.664062 96.988281 111.210938 97.261719 111.628906 97.914062 C 112.210938 98.792969 113.109375 99.976562 113.105469 101.832031 C 113.101562 102.796875 112.871094 103.917969 112.3125 105.253906 C 112.085938 105.800781 112.003906 106.222656 112.003906 106.5625 C 112.007812 106.996094 112.121094 107.328125 112.335938 107.699219 C 112.550781 108.070312 112.875 108.457031 113.242188 108.90625 C 113.96875 109.792969 114.859375 110.976562 115 112.800781 C 115.058594 113.5625 115.238281 113.953125 115.378906 114.105469 C 115.511719 114.25 115.605469 114.285156 115.859375 114.296875 C 116.351562 114.3125 117.171875 113.9375 117.835938 113.683594 C 118.070312 113.601562 118.28125 113.523438 118.589844 113.515625 C 118.589844 113.515625 118.59375 113.515625 118.621094 113.511719 C 118.644531 113.507812 118.683594 113.5 118.730469 113.488281 C 118.832031 113.460938 118.960938 113.417969 119.109375 113.359375 C 119.40625 113.242188 119.78125 113.058594 120.171875 112.839844 C 120.957031 112.398438 121.816406 111.785156 122.367188 111.199219 C 122.742188 110.816406 122.949219 110.441406 122.972656 110.253906 C 123.0625 109.777344 123.117188 109.527344 123.199219 109.308594 C 123.234375 109.226562 123.25 109.148438 123.386719 108.996094 C 123.460938 108.914062 123.632812 108.757812 123.945312 108.75 C 124.089844 108.75 124.222656 108.796875 124.320312 108.855469 C 124.578125 108.609375 124.773438 108.320312 124.777344 107.882812 C 124.777344 107.734375 124.753906 107.5625 124.691406 107.359375 C 124.597656 107.046875 124.714844 106.710938 124.984375 106.53125 C 124.984375 106.53125 125.113281 106.441406 125.335938 106.28125 C 125.558594 106.117188 125.867188 105.886719 126.210938 105.609375 C 126.898438 105.058594 127.71875 104.320312 128.21875 103.660156 C 128.558594 103.226562 128.710938 102.820312 128.699219 102.683594 C 128.699219 102.664062 128.695312 102.648438 128.691406 102.632812 C 128.640625 102.324219 128.421875 101.800781 128.195312 101.160156 C 127.96875 100.519531 127.746094 99.742188 127.746094 98.839844 C 127.738281 97.226562 128.496094 95.332031 130.78125 93.292969 C 133.691406 90.644531 134 88.949219 134.019531 87.640625 C 134.019531 87.304688 133.992188 86.988281 133.96875 86.671875 L 131.828125 87.421875 C 131.507812 87.535156 131.152344 87.410156 130.964844 87.125 C 130.964844 87.125 130.492188 86.394531 129.835938 85.429688 C 129.175781 84.464844 128.332031 83.265625 127.613281 82.355469 C 127.140625 81.753906 126.691406 81.265625 126.5 81.128906 C 125.808594 80.582031 125.414062 79.738281 124.988281 78.808594 C 124.574219 77.882812 124.191406 76.863281 123.824219 76.09375 C 123.585938 75.582031 123.332031 75.175781 123.179688 75.03125 C 122.933594 74.785156 122.894531 74.410156 123.070312 74.125 C 122.960938 74.132812 122.851562 74.136719 122.742188 74.136719 C 122.375 74.136719 121.972656 74.089844 121.527344 73.988281 C 119.09375 73.441406 118.171875 73.222656 117.914062 73.238281 C 117.828125 73.242188 117.84375 73.242188 117.78125 73.261719 C 117.722656 73.285156 117.589844 73.359375 117.375 73.46875 C 117.375 73.46875 117.375 73.46875 117.359375 73.484375 C 117.339844 73.507812 117.308594 73.570312 117.269531 73.671875 C 117.179688 73.855469 117.109375 74.203125 116.746094 74.558594 C 116.5 74.792969 116.117188 74.929688 115.75 74.921875 C 115.167969 74.914062 114.554688 74.695312 113.625 74.242188 C 112.691406 73.773438 111.882812 73.40625 111.21875 73.078125 C 110.550781 72.746094 110.03125 72.480469 109.625 72.109375 C 109.359375 71.871094 109.097656 71.503906 109.097656 71.035156 C 109.097656 70.980469 109.101562 70.929688 109.109375 70.878906 C 108.722656 70.746094 108.210938 70.625 107.710938 70.625 C 107.257812 70.625 106.835938 70.714844 106.464844 70.953125 C 105.257812 71.726562 104.066406 72.089844 102.929688 72.089844 C 102.414062 72.089844 101.921875 72.015625 101.441406 71.878906 C 101.398438 71.898438 101.347656 71.917969 101.292969 71.941406 C 101.066406 72.03125 100.757812 72.175781 100.445312 72.371094 C 99.808594 72.765625 99.210938 73.339844 99.054688 74.058594 C 98.882812 74.78125 98.425781 75.308594 97.941406 75.746094 C 97.449219 76.1875 96.894531 76.574219 96.351562 77.027344 C 95.265625 77.941406 94.234375 79.027344 93.800781 81.148438 C 93.601562 82.132812 93.503906 83.011719 93.503906 83.816406 C 93.519531 86.566406 94.59375 88.527344 97.457031 91.03125 C 97.992188 90.925781 99.023438 90.75 100.070312 90.746094 C 100.644531 90.753906 101.226562 90.792969 101.769531 90.976562 C 102.257812 90.617188 103.167969 90.089844 104.40625 90.074219 C 105.34375 90.070312 106.425781 90.417969 107.484375 91.3125 C 107.71875 91.257812 108.023438 91.203125 108.363281 91.199219 C 108.84375 91.199219 109.457031 91.3125 109.953125 91.777344 C 110.457031 92.238281 110.722656 92.972656 110.71875 93.902344 C 110.71875 94.152344 110.703125 94.414062 110.667969 94.703125 C 110.558594 95.558594 110.511719 96.128906 110.511719 96.480469 C 110.511719 96.730469 110.539062 96.863281 110.550781 96.902344 C 110.554688 96.902344 110.554688 96.90625 110.5625 96.910156 Z M 114.257812 115.0625 C 113.824219 114.554688 113.605469 113.855469 113.527344 112.917969 C 113.4375 111.863281 113.074219 111.160156 112.605469 110.488281 C 112.132812 109.820312 111.527344 109.230469 111.0625 108.445312 C 110.757812 107.925781 110.527344 107.289062 110.53125 106.5625 C 110.53125 105.988281 110.667969 105.371094 110.949219 104.691406 C 111.453125 103.476562 111.628906 102.558594 111.628906 101.832031 C 111.621094 100.460938 111.035156 99.6875 110.402344 98.730469 C 110.078125 98.269531 110.015625 98.359375 109.5625 97.996094 C 109.417969 97.875 109.269531 97.675781 109.183594 97.457031 C 109.070312 97.164062 109.039062 96.863281 109.039062 96.480469 C 109.039062 96.007812 109.09375 95.402344 109.203125 94.523438 C 109.230469 94.289062 109.242188 94.082031 109.242188 93.902344 C 109.238281 93.214844 109.070312 92.96875 108.953125 92.855469 C 108.832031 92.738281 108.632812 92.679688 108.363281 92.679688 C 108.070312 92.675781 107.746094 92.765625 107.625 92.804688 C 107.585938 92.820312 107.578125 92.820312 107.578125 92.820312 C 107.308594 92.929688 107.003906 92.871094 106.792969 92.671875 C 105.84375 91.777344 105.058594 91.558594 104.40625 91.550781 C 103.394531 91.539062 102.582031 92.191406 102.433594 92.332031 C 102.417969 92.351562 102.417969 92.351562 102.417969 92.351562 C 102.183594 92.582031 101.820312 92.636719 101.53125 92.472656 C 101.273438 92.320312 100.695312 92.214844 100.070312 92.222656 C 99.128906 92.21875 98.089844 92.40625 97.644531 92.5 C 97.5 92.53125 97.421875 92.546875 97.421875 92.546875 C 97.195312 92.601562 96.953125 92.542969 96.773438 92.394531 C 93.5625 89.699219 92.007812 87.136719 92.027344 83.816406 C 92.027344 82.890625 92.144531 81.914062 92.351562 80.859375 C 93.09375 77.070312 95.785156 75.71875 96.953125 74.648438 C 97.355469 74.289062 97.554688 74.003906 97.617188 73.726562 C 97.921875 72.429688 98.871094 71.613281 99.667969 71.121094 C 99.75 71.066406 99.832031 71.019531 99.910156 70.976562 C 99.878906 70.9375 99.859375 70.90625 99.839844 70.882812 C 99.78125 70.789062 99.769531 70.742188 99.753906 70.703125 C 99.730469 70.628906 99.722656 70.597656 99.714844 70.554688 C 99.703125 70.476562 99.691406 70.398438 99.683594 70.296875 C 99.660156 70.085938 99.636719 69.773438 99.605469 69.296875 C 99.589844 69.058594 99.582031 68.835938 99.582031 68.628906 C 99.566406 66.550781 100.320312 65.820312 100.582031 65.679688 C 100.734375 65.589844 100.917969 65.554688 101.089844 65.585938 C 101.828125 65.71875 102.410156 65.769531 102.84375 65.769531 C 103.480469 65.773438 103.800781 65.652344 103.886719 65.582031 C 103.960938 65.511719 103.941406 65.554688 103.957031 65.433594 C 103.964844 65.296875 103.867188 64.996094 103.722656 64.742188 C 103.582031 64.480469 103.414062 64.253906 103.355469 64.183594 C 103.339844 64.160156 103.335938 64.152344 103.335938 64.152344 C 103.128906 63.90625 103.105469 63.554688 103.28125 63.28125 C 103.449219 63.023438 103.761719 62.894531 104.058594 62.960938 C 104.066406 62.964844 104.09375 62.964844 104.140625 62.964844 C 104.402344 62.96875 105.363281 62.871094 107.210938 61.671875 C 108.429688 60.871094 109.296875 60.609375 110.121094 60.617188 C 110.027344 60.507812 109.949219 60.390625 109.898438 60.277344 C 109.886719 60.257812 109.878906 60.242188 109.871094 60.222656 C 109.789062 60.230469 109.707031 60.234375 109.628906 60.234375 C 108.984375 60.257812 108.417969 59.882812 108.199219 59.46875 C 107.972656 59.066406 107.960938 58.707031 107.953125 58.511719 C 107.953125 58.425781 107.960938 58.367188 107.964844 58.34375 C 108.007812 57.953125 108.34375 57.667969 108.738281 57.6875 C 108.886719 57.699219 109.023438 57.75 109.136719 57.835938 C 109.332031 57.71875 109.636719 57.488281 110.054688 57.105469 C 111.066406 56.160156 111.984375 55.757812 112.890625 55.769531 C 113.714844 55.78125 114.394531 56.015625 115.304688 56.148438 C 116.628906 56.347656 117.460938 56.816406 117.933594 57.191406 C 118.480469 56.824219 119.183594 56.230469 119.726562 55.734375 C 119.917969 55.558594 120.191406 55.5 120.441406 55.574219 C 131.398438 58.992188 139.964844 67.851562 142.976562 78.980469 L 142.996094 79.09375 C 143.171875 80.675781 143.222656 82.042969 143.222656 83.070312 C 143.222656 84.328125 143.148438 85.078125 143.148438 85.09375 C 143.109375 85.46875 142.800781 85.753906 142.425781 85.761719 C 142.054688 85.769531 141.730469 85.492188 141.683594 85.125 C 140.917969 79.472656 138.199219 77.207031 137.445312 76.667969 C 137.234375 76.699219 137.023438 76.710938 136.820312 76.714844 C 137.082031 77.164062 137.207031 77.722656 137.269531 78.476562 C 137.28125 78.597656 137.285156 78.71875 137.285156 78.84375 C 137.269531 81.054688 135.808594 82.742188 134.464844 83.882812 C 133.199219 84.953125 131.964844 85.582031 131.777344 85.675781 C 131.816406 85.734375 131.851562 85.789062 131.886719 85.839844 L 134.433594 84.949219 C 134.671875 84.863281 134.941406 84.910156 135.136719 85.066406 C 135.335938 85.226562 135.4375 85.476562 135.410156 85.726562 C 135.40625 85.78125 135.398438 85.847656 135.398438 85.925781 C 135.394531 86.316406 135.492188 86.90625 135.496094 87.640625 C 135.515625 89.308594 134.890625 91.605469 131.769531 94.386719 C 129.683594 96.277344 129.230469 97.695312 129.222656 98.839844 C 129.222656 99.496094 129.382812 100.097656 129.585938 100.675781 C 129.785156 101.253906 130.03125 101.785156 130.144531 102.378906 C 130.160156 102.476562 130.171875 102.578125 130.171875 102.683594 C 130.15625 103.40625 129.804688 103.988281 129.390625 104.550781 C 128.964844 105.109375 128.433594 105.636719 127.90625 106.105469 C 127.257812 106.683594 126.621094 107.167969 126.222656 107.457031 C 126.242188 107.601562 126.25 107.742188 126.25 107.882812 C 126.253906 108.878906 125.71875 109.601562 125.246094 110.007812 C 124.914062 110.296875 124.59375 110.464844 124.417969 110.546875 C 124.203125 111.519531 123.472656 112.246094 122.65625 112.929688 C 121.824219 113.605469 120.855469 114.183594 120.046875 114.558594 C 119.492188 114.800781 119.078125 114.972656 118.59375 114.992188 C 118.585938 114.992188 118.570312 114.996094 118.546875 115.003906 C 118.496094 115.015625 118.425781 115.039062 118.339844 115.070312 C 118.164062 115.132812 117.9375 115.226562 117.683594 115.328125 C 117.167969 115.527344 116.554688 115.765625 115.859375 115.769531 C 115.847656 115.769531 115.835938 115.769531 115.820312 115.769531 C 115.296875 115.769531 114.679688 115.566406 114.257812 115.0625 " fill-opacity="1" fill-rule="nonzero"/></g><g clip-path="url(#30f7212d1e)"><path fill="#ffffff" d="M 109.984375 120.691406 C 98.128906 120.675781 88.625 113.394531 88.5625 113.363281 C 88.238281 113.113281 88.175781 112.652344 88.421875 112.328125 C 88.667969 112.003906 89.128906 111.941406 89.453125 112.1875 C 89.453125 112.1875 89.585938 112.289062 89.859375 112.480469 C 90.128906 112.671875 90.53125 112.941406 91.054688 113.273438 C 92.097656 113.933594 93.613281 114.816406 95.480469 115.699219 C 99.21875 117.464844 104.367188 119.21875 109.984375 119.21875 C 111.039062 119.214844 112.113281 119.15625 113.195312 119.023438 C 127.1875 117.265625 139.140625 108 141.757812 91.917969 C 141.820312 91.515625 142.199219 91.242188 142.601562 91.304688 C 143 91.371094 143.277344 91.75 143.210938 92.152344 C 140.515625 108.902344 127.898438 118.707031 113.378906 120.488281 C 112.238281 120.625 111.109375 120.691406 110.003906 120.691406 C 109.996094 120.691406 109.992188 120.691406 109.984375 120.691406 " fill-opacity="1" fill-rule="nonzero"/></g><g clip-path="url(#d07fd2addb)"><path fill="#ff914d" d="M 201.640625 46.289062 C 201.574219 46.40625 201.496094 46.511719 201.417969 46.628906 C 200.996094 47.226562 200.496094 47.882812 199.957031 48.578125 C 199.476562 49.179688 198.96875 49.808594 198.417969 50.453125 L 198.957031 53.488281 L 199.1875 54.820312 L 199.554688 56.859375 L 199.726562 57.851562 L 199.898438 58.90625 L 200.082031 59.902344 L 200.1875 60.492188 L 200.5625 62.65625 L 200.71875 63.523438 L 200.726562 63.589844 L 201.101562 65.6875 L 201.207031 66.277344 L 201.253906 66.558594 L 201.648438 68.808594 C 201.699219 69.078125 201.707031 69.261719 201.6875 69.425781 L 201.6875 69.464844 C 201.640625 69.726562 201.484375 69.949219 201.148438 70.382812 C 201.09375 70.460938 201.023438 70.535156 200.96875 70.613281 C 200.773438 70.867188 200.679688 71 200.601562 71.03125 L 200.574219 71.03125 C 200.496094 71.011719 200.457031 70.796875 200.3125 70.429688 C 199.976562 69.550781 199.640625 68.683594 199.273438 67.832031 C 199.21875 67.6875 199.148438 67.542969 199.09375 67.386719 C 198.898438 66.925781 198.699219 66.449219 198.488281 65.976562 C 198.371094 65.714844 198.253906 65.445312 198.128906 65.183594 C 198.042969 64.992188 197.957031 64.808594 197.871094 64.617188 L 196.667969 62.132812 L 196.082031 60.914062 C 195.324219 59.449219 194.535156 58.007812 193.707031 56.597656 C 193.582031 56.394531 193.46875 56.191406 193.34375 55.988281 C 192.8125 56.53125 192.292969 57.0625 191.765625 57.582031 C 191.71875 57.632812 191.660156 57.679688 191.613281 57.726562 C 190.496094 58.839844 189.371094 59.902344 188.324219 60.847656 C 187.738281 61.390625 187.160156 61.890625 186.621094 62.355469 C 186.515625 62.453125 186.402344 62.539062 186.296875 62.636719 L 186.304688 62.691406 L 186.449219 63.71875 L 186.652344 65.175781 L 186.671875 65.28125 L 186.832031 66.441406 L 186.902344 66.886719 L 187.027344 67.785156 L 187.1875 68.941406 C 187.21875 69.105469 187.171875 69.234375 187.082031 69.367188 C 186.890625 69.648438 186.726562 69.898438 186.554688 70.160156 C 186.527344 70.199219 186.496094 70.246094 186.46875 70.285156 C 186.410156 70.371094 186.351562 70.460938 186.296875 70.546875 C 186.21875 70.652344 186.21875 70.671875 186.152344 70.554688 C 186.101562 70.460938 186.054688 70.371094 186.015625 70.285156 L 186.007812 70.285156 C 185.96875 70.207031 185.929688 70.132812 185.890625 70.054688 L 185.566406 69.425781 C 185.410156 69.105469 185.246094 68.789062 185.082031 68.480469 C 184.941406 68.199219 184.796875 67.917969 184.652344 67.640625 C 184.535156 67.40625 184.421875 67.195312 184.304688 66.972656 C 184.304688 66.960938 184.304688 66.960938 184.304688 66.960938 C 184.171875 66.710938 184.046875 66.449219 183.910156 66.199219 C 183.871094 66.113281 183.824219 66.015625 183.777344 65.929688 L 183.476562 65.648438 L 183.152344 65.347656 L 182.476562 64.722656 L 181.824219 64.09375 L 181.21875 63.503906 L 181.210938 63.503906 L 180.140625 63.019531 C 180.113281 63.011719 180.085938 63.003906 180.066406 62.984375 C 179.257812 62.625 178.441406 62.269531 177.632812 61.902344 C 177.421875 61.804688 177.210938 61.71875 176.996094 61.621094 C 176.824219 61.542969 176.652344 61.464844 176.480469 61.390625 C 176.355469 61.332031 176.382812 61.320312 176.480469 61.234375 C 176.605469 61.148438 176.730469 61.050781 176.855469 60.964844 C 177.09375 60.769531 177.335938 60.585938 177.605469 60.382812 C 177.738281 60.289062 177.855469 60.230469 178.027344 60.25 L 179.191406 60.34375 L 180.074219 60.421875 L 183.257812 60.683594 L 184.34375 60.78125 C 184.84375 60.105469 185.402344 59.378906 185.996094 58.625 C 186.871094 57.542969 187.832031 56.394531 188.84375 55.226562 C 188.910156 55.148438 188.976562 55.082031 189.035156 55.003906 C 189.527344 54.445312 190.027344 53.882812 190.527344 53.324219 C 188.890625 52.453125 187.199219 51.640625 185.476562 50.859375 L 181.699219 49.285156 C 181.632812 49.257812 181.566406 49.226562 181.496094 49.207031 C 179.640625 48.472656 177.738281 47.796875 175.777344 47.167969 C 175.066406 46.9375 174.949219 47.054688 175.554688 46.523438 C 175.625 46.464844 175.699219 46.398438 175.777344 46.339844 C 176.429688 45.757812 176.566406 45.671875 177.191406 45.730469 L 177.324219 45.738281 L 177.480469 45.757812 C 177.535156 45.769531 177.605469 45.769531 177.660156 45.777344 L 182.71875 46.378906 L 183.488281 46.464844 L 185.660156 46.726562 L 189.304688 47.148438 L 191.363281 47.390625 L 195.738281 47.914062 C 196.351562 47.324219 196.9375 46.773438 197.503906 46.261719 C 198.238281 45.605469 198.9375 45.015625 199.574219 44.523438 C 199.609375 44.492188 199.648438 44.464844 199.6875 44.4375 C 200.785156 43.59375 201.699219 43.035156 202.339844 42.871094 C 202.609375 42.804688 202.832031 42.804688 202.996094 42.871094 C 203.285156 43.441406 202.726562 44.667969 201.640625 46.289062 " fill-opacity="1" fill-rule="evenodd"/></g><g clip-path="url(#2c14ff0449)"><path fill="#ff914d" d="M 161.816406 86.535156 C 161.363281 86.648438 160.914062 86.746094 160.46875 86.910156 C 159.738281 87.179688 159.085938 87.683594 158.414062 88.078125 C 157.75 88.484375 157.066406 88.863281 156.367188 89.191406 C 155.558594 89.585938 154.722656 89.972656 153.855469 90.222656 C 153.636719 90.292969 153.367188 90.367188 153.078125 90.417969 C 153.019531 91.703125 152.894531 92.96875 152.722656 94.214844 C 149.875 114.632812 132.40625 130.351562 111.292969 130.351562 C 97.996094 130.351562 86.140625 124.121094 78.476562 114.390625 C 86.371094 114.316406 94.023438 113.234375 101.3125 111.273438 C 101.324219 111.273438 101.324219 111.273438 101.324219 111.273438 C 102.234375 111.03125 103.140625 110.769531 104.035156 110.5 C 99.324219 111.242188 94.503906 111.628906 89.59375 111.628906 C 84.910156 111.628906 80.304688 111.28125 75.816406 110.597656 C 72.054688 110.027344 68.363281 109.234375 64.769531 108.21875 C 65.59375 110.160156 66.539062 112.046875 67.59375 113.859375 C 76.355469 128.96875 92.640625 139.113281 111.292969 139.113281 C 138.886719 139.113281 161.316406 116.914062 161.84375 89.316406 C 161.855469 88.988281 161.855469 88.660156 161.855469 88.320312 C 161.855469 87.722656 161.835938 87.121094 161.816406 86.535156 " fill-opacity="1" fill-rule="evenodd"/></g><g clip-path="url(#0cf8335c41)"><path fill="#ffffff" d="M 158.402344 69.832031 C 158.097656 69.058594 157.777344 68.285156 157.433594 67.53125 C 156.308594 65 154.980469 62.585938 153.480469 60.308594 C 147.125 50.667969 137.589844 43.335938 126.378906 39.820312 C 121.617188 38.332031 116.550781 37.519531 111.292969 37.519531 C 101.339844 37.519531 92.054688 40.417969 84.226562 45.410156 C 81.199219 47.34375 78.390625 49.585938 75.84375 52.105469 C 72.390625 55.515625 69.421875 59.429688 67.054688 63.71875 C 66.382812 64.945312 65.75 66.199219 65.171875 67.484375 C 67.46875 69.320312 69.988281 70.875 72.679688 72.128906 C 75.730469 73.558594 78.988281 74.585938 82.410156 75.152344 C 79.371094 73.589844 76.476562 71.761719 73.777344 69.707031 C 75.660156 65.878906 78.101562 62.394531 80.996094 59.332031 C 83.277344 56.9375 85.832031 54.800781 88.613281 52.996094 C 95.148438 48.753906 102.9375 46.289062 111.292969 46.289062 C 116.042969 46.289062 120.609375 47.082031 124.859375 48.550781 C 134.300781 51.796875 142.210938 58.335938 147.242188 66.808594 C 148.65625 69.175781 149.835938 71.6875 150.761719 74.332031 C 147.480469 75.925781 144.039062 77.230469 140.453125 78.1875 C 144.222656 77.9375 147.886719 77.316406 151.414062 76.371094 C 151.566406 76.332031 151.722656 76.285156 151.867188 76.246094 C 154.546875 75.503906 157.152344 74.574219 159.664062 73.472656 C 159.289062 72.238281 158.863281 71.03125 158.402344 69.832031 " fill-opacity="1" fill-rule="evenodd"/></g><g clip-path="url(#2cf48664fd)"><path fill="#ff914d" d="M 184.429688 71.03125 C 180.113281 75.867188 175 80.417969 169.179688 84.542969 C 168.96875 84.699219 168.75 84.851562 168.539062 84.996094 C 168.375 85.113281 168.210938 85.21875 168.054688 85.335938 C 167.179688 85.933594 166.308594 86.523438 165.414062 87.113281 C 165.230469 87.21875 165.046875 87.34375 164.863281 87.460938 C 164.433594 87.730469 163.988281 88.011719 163.546875 88.28125 C 162.980469 88.640625 162.421875 88.976562 161.84375 89.316406 C 161.796875 89.34375 161.757812 89.363281 161.710938 89.394531 C 161.566406 89.488281 161.414062 89.578125 161.269531 89.664062 C 158.527344 91.265625 155.683594 92.792969 152.722656 94.214844 C 152.480469 94.328125 152.242188 94.445312 152 94.5625 C 144.597656 98.078125 136.558594 100.996094 128.003906 103.175781 C 128.003906 103.1875 128.003906 103.1875 128.003906 103.175781 C 124.339844 104.125 120.570312 104.925781 116.734375 105.582031 C 116.136719 105.6875 115.550781 105.785156 114.957031 105.882812 C 107.175781 107.117188 99.523438 107.699219 92.113281 107.640625 C 92.101562 107.640625 92.09375 107.640625 92.09375 107.640625 C 91.882812 107.648438 91.679688 107.648438 91.46875 107.640625 C 90.238281 107.628906 89.007812 107.609375 87.792969 107.5625 C 86.59375 107.515625 85.410156 107.457031 84.226562 107.378906 C 84.1875 107.371094 84.160156 107.371094 84.121094 107.371094 C 83.9375 107.359375 83.765625 107.351562 83.59375 107.332031 C 82.113281 107.234375 80.640625 107.097656 79.191406 106.953125 C 77.246094 106.75 75.324219 106.511719 73.429688 106.21875 C 73.015625 106.152344 72.605469 106.085938 72.191406 106.015625 C 69.144531 105.523438 66.164062 104.925781 63.269531 104.210938 C 53.960938 101.929688 45.480469 98.570312 38.164062 94.289062 C 45.664062 96.511719 53.617188 98.191406 61.914062 99.273438 C 64.789062 99.640625 67.691406 99.941406 70.640625 100.171875 C 70.816406 100.183594 70.988281 100.191406 71.160156 100.210938 C 73.480469 100.386719 75.816406 100.5 78.179688 100.589844 C 79.410156 100.628906 80.652344 100.65625 81.882812 100.675781 C 82.066406 100.675781 82.238281 100.675781 82.402344 100.675781 C 82.554688 100.675781 82.71875 100.683594 82.871094 100.683594 C 83.179688 100.683594 83.488281 100.683594 83.796875 100.683594 C 84.554688 100.683594 85.3125 100.683594 86.074219 100.683594 C 86.449219 100.675781 86.824219 100.675781 87.207031 100.664062 C 87.410156 100.664062 87.621094 100.65625 87.832031 100.65625 C 88.59375 100.636719 89.363281 100.617188 90.121094 100.589844 C 91.363281 100.550781 92.613281 100.492188 93.871094 100.433594 C 100.398438 100.085938 107.050781 99.390625 113.761719 98.320312 C 114.917969 98.136719 116.070312 97.941406 117.214844 97.738281 C 117.445312 97.699219 117.675781 97.660156 117.90625 97.613281 C 118.367188 97.535156 118.820312 97.449219 119.273438 97.363281 C 119.320312 97.351562 119.367188 97.34375 119.417969 97.332031 C 119.992188 97.226562 120.589844 97.109375 121.167969 96.996094 C 121.78125 96.871094 122.386719 96.742188 123.003906 96.617188 C 123.542969 96.511719 124.070312 96.394531 124.609375 96.269531 C 124.992188 96.191406 125.378906 96.105469 125.761719 96.019531 C 126.128906 95.941406 126.492188 95.855469 126.859375 95.769531 C 127.472656 95.632812 128.078125 95.488281 128.695312 95.34375 C 129.203125 95.21875 129.703125 95.09375 130.214844 94.964844 C 130.773438 94.832031 131.328125 94.6875 131.886719 94.542969 C 132.039062 94.492188 132.195312 94.453125 132.359375 94.414062 C 132.742188 94.308594 133.128906 94.214844 133.511719 94.105469 C 133.964844 93.980469 134.425781 93.855469 134.875 93.730469 C 135.15625 93.652344 135.433594 93.574219 135.703125 93.5 C 135.847656 93.460938 135.992188 93.421875 136.125 93.382812 C 136.269531 93.34375 136.414062 93.296875 136.558594 93.257812 C 136.972656 93.140625 137.375 93.015625 137.78125 92.898438 C 137.914062 92.859375 138.050781 92.820312 138.175781 92.785156 C 138.519531 92.675781 138.875 92.570312 139.230469 92.464844 C 140.308594 92.136719 141.394531 91.789062 142.472656 91.441406 C 143.480469 91.113281 144.480469 90.785156 145.480469 90.4375 C 146.933594 89.933594 148.367188 89.421875 149.789062 88.878906 C 149.867188 88.863281 149.933594 88.832031 150.011719 88.804688 C 150.058594 88.785156 150.097656 88.773438 150.136719 88.753906 C 150.546875 88.601562 150.972656 88.445312 151.386719 88.28125 C 151.585938 88.203125 151.789062 88.117188 152 88.039062 C 152.375 87.894531 152.75 87.75 153.125 87.597656 C 153.511719 87.441406 153.894531 87.285156 154.277344 87.132812 C 156.210938 86.351562 158.113281 85.539062 159.988281 84.6875 C 160.144531 84.621094 160.296875 84.554688 160.460938 84.476562 C 160.863281 84.300781 161.269531 84.117188 161.664062 83.933594 C 162.019531 83.769531 162.363281 83.605469 162.710938 83.441406 C 163.007812 83.308594 163.316406 83.164062 163.613281 83.015625 C 163.808594 82.921875 164 82.832031 164.183594 82.738281 C 165.46875 82.117188 166.738281 81.480469 168 80.84375 C 168.046875 80.816406 168.09375 80.796875 168.132812 80.765625 C 168.277344 80.699219 168.414062 80.621094 168.554688 80.542969 C 174.179688 77.628906 179.480469 74.4375 184.429688 71.03125 " fill-opacity="1" fill-rule="evenodd"/></g><path fill="#ffffff" d="M 170.738281 73.210938 C 168.75 74.527344 166.671875 75.773438 164.507812 76.960938 C 163.5 77.519531 162.460938 78.0625 161.414062 78.582031 C 161.269531 78.660156 161.113281 78.726562 160.96875 78.804688 C 160.46875 79.058594 159.972656 79.289062 159.460938 79.53125 C 159.203125 79.65625 158.933594 79.78125 158.664062 79.90625 C 158.625 79.925781 158.578125 79.945312 158.527344 79.964844 C 158.519531 79.972656 158.5 79.984375 158.480469 79.992188 C 158.019531 80.207031 157.558594 80.410156 157.085938 80.613281 C 157.007812 80.652344 156.921875 80.6875 156.828125 80.726562 C 156.480469 80.890625 156.125 81.035156 155.769531 81.183594 C 155.527344 81.289062 155.277344 81.394531 155.027344 81.5 C 154.617188 81.675781 154.183594 81.847656 153.75 82.011719 C 153.453125 82.136719 153.136719 82.265625 152.835938 82.378906 C 152.796875 82.398438 152.761719 82.410156 152.722656 82.429688 C 152.546875 82.496094 152.386719 82.554688 152.203125 82.621094 C 152.097656 82.667969 151.992188 82.707031 151.875 82.746094 C 151.585938 82.851562 151.296875 82.96875 150.992188 83.074219 C 150.941406 83.09375 150.886719 83.113281 150.828125 83.132812 C 150.316406 83.328125 149.796875 83.511719 149.28125 83.695312 C 148.769531 83.867188 148.261719 84.042969 147.75 84.214844 C 146.855469 84.503906 145.953125 84.792969 145.050781 85.066406 C 145.03125 85.074219 145.019531 85.074219 145 85.085938 C 144.710938 85.171875 144.425781 85.257812 144.136719 85.34375 C 143.683594 85.480469 143.222656 85.605469 142.769531 85.730469 C 142.730469 85.742188 142.695312 85.75 142.65625 85.761719 C 142.230469 85.886719 141.789062 86.003906 141.355469 86.109375 C 140.675781 86.292969 139.980469 86.484375 139.28125 86.648438 C 138.800781 86.765625 138.320312 86.882812 137.828125 86.996094 C 137.195312 87.140625 136.539062 87.285156 135.894531 87.433594 C 135.886719 87.433594 135.886719 87.433594 135.875 87.433594 C 135.5 87.507812 135.117188 87.585938 134.742188 87.664062 C 132.675781 88.089844 130.570312 88.457031 128.433594 88.773438 C 126.445312 89.0625 124.453125 89.304688 122.492188 89.5 C 121.917969 89.558594 121.359375 89.59375 120.792969 89.644531 C 120.261719 89.691406 119.722656 89.730469 119.195312 89.761719 C 119.15625 89.769531 119.117188 89.777344 119.070312 89.769531 C 118.6875 89.796875 118.28125 89.828125 117.886719 89.847656 C 117.675781 89.855469 117.464844 89.875 117.253906 89.886719 C 116.761719 89.90625 116.261719 89.925781 115.773438 89.945312 C 115.753906 89.945312 115.742188 89.953125 115.726562 89.945312 C 115.332031 89.960938 114.9375 89.972656 114.542969 89.992188 C 114.253906 89.992188 113.964844 90 113.6875 90.011719 C 113.4375 90.011719 113.195312 90.011719 112.957031 90.011719 C 112.601562 90.019531 112.253906 90.019531 111.898438 90.019531 C 111.667969 90.03125 111.445312 90.019531 111.214844 90.019531 C 110.917969 90.019531 110.621094 90.019531 110.320312 90.011719 C 110.070312 90.011719 109.8125 90.011719 109.550781 90 C 109.195312 90 108.839844 89.992188 108.484375 89.980469 C 108.214844 89.972656 107.957031 89.960938 107.6875 89.953125 C 107.535156 89.953125 107.390625 89.945312 107.253906 89.933594 C 106.820312 89.925781 106.410156 89.90625 105.984375 89.875 C 105.851562 89.875 105.714844 89.875 105.589844 89.855469 C 105.160156 89.835938 104.734375 89.808594 104.304688 89.777344 C 103.273438 89.710938 102.246094 89.625 101.226562 89.527344 C 100.851562 89.488281 100.496094 89.460938 100.128906 89.414062 C 99.9375 89.402344 99.734375 89.375 99.554688 89.355469 C 98.503906 89.238281 97.484375 89.101562 96.46875 88.949219 C 95.957031 88.878906 95.449219 88.804688 94.949219 88.714844 C 94.628906 88.667969 94.3125 88.621094 94.003906 88.5625 C 93.738281 88.515625 93.457031 88.476562 93.1875 88.425781 C 92.699219 88.332031 92.21875 88.242188 91.738281 88.148438 C 91.46875 88.089844 91.207031 88.039062 90.949219 87.984375 C 90.6875 87.933594 90.417969 87.875 90.160156 87.816406 C 89.84375 87.75 89.523438 87.683594 89.207031 87.605469 C 89.09375 87.585938 88.96875 87.558594 88.84375 87.519531 C 88.488281 87.441406 88.121094 87.355469 87.765625 87.269531 C 87.632812 87.238281 87.496094 87.210938 87.363281 87.171875 C 86.957031 87.074219 86.542969 86.96875 86.132812 86.851562 C 85.699219 86.738281 85.265625 86.621094 84.824219 86.503906 C 84.71875 86.476562 84.613281 86.4375 84.507812 86.40625 C 84.113281 86.292969 83.726562 86.175781 83.332031 86.058594 C 83.160156 86.011719 82.988281 85.953125 82.804688 85.90625 C 82.527344 85.808594 82.246094 85.730469 81.96875 85.636719 C 80.140625 85.054688 78.382812 84.417969 76.679688 83.722656 C 76.246094 83.558594 75.824219 83.382812 75.402344 83.199219 C 74.441406 82.796875 73.488281 82.371094 72.566406 81.917969 C 72.402344 81.839844 72.238281 81.769531 72.085938 81.695312 C 71.515625 81.414062 70.960938 81.132812 70.402344 80.835938 C 70.324219 80.796875 70.238281 80.746094 70.152344 80.699219 C 67.316406 79.191406 64.699219 77.53125 62.316406 75.703125 C 58.757812 73 55.738281 69.957031 53.335938 66.632812 C 54.382812 67.28125 55.472656 67.917969 56.578125 68.546875 C 58.738281 69.753906 61.027344 70.902344 63.414062 71.976562 C 65.777344 73.046875 68.25 74.042969 70.824219 74.96875 C 71 75.039062 71.179688 75.105469 71.363281 75.164062 C 71.421875 75.183594 71.480469 75.203125 71.527344 75.222656 C 72.179688 75.453125 72.835938 75.675781 73.496094 75.898438 C 74.671875 76.285156 75.863281 76.660156 77.066406 77.019531 C 78.363281 77.40625 79.671875 77.773438 81.007812 78.121094 C 88.9375 80.207031 97.535156 81.644531 106.570312 82.320312 C 111.023438 82.660156 115.589844 82.804688 120.222656 82.746094 C 122.734375 82.707031 125.222656 82.632812 127.675781 82.476562 C 128.128906 82.457031 128.578125 82.429688 129.023438 82.398438 C 129.03125 82.398438 129.03125 82.390625 129.050781 82.398438 C 129.867188 82.339844 130.683594 82.28125 131.492188 82.214844 C 131.914062 82.175781 132.320312 82.136719 132.734375 82.101562 C 133.472656 82.03125 134.203125 81.964844 134.933594 81.886719 C 138.914062 81.460938 142.800781 80.902344 146.566406 80.195312 C 146.761719 80.15625 146.953125 80.121094 147.144531 80.082031 C 148.828125 79.761719 150.480469 79.414062 152.105469 79.039062 C 152.117188 79.039062 152.136719 79.027344 152.144531 79.027344 C 153.097656 78.804688 154.046875 78.582031 154.980469 78.34375 C 156.164062 78.042969 157.328125 77.734375 158.480469 77.414062 C 158.632812 77.367188 158.789062 77.328125 158.941406 77.28125 C 159.25 77.191406 159.558594 77.097656 159.863281 77.007812 C 160.097656 76.941406 160.328125 76.875 160.546875 76.804688 C 161.835938 76.417969 163.105469 76.015625 164.355469 75.589844 C 166.546875 74.84375 168.679688 74.054688 170.738281 73.210938 " fill-opacity="1" fill-rule="evenodd"/><g fill="#ffffff" fill-opacity="1"><g transform="translate(96.420596, 79.589143)"><g><path d="M 23.25 -29.015625 L 23.25 -24.1875 L 14.890625 -24.1875 L 14.890625 0 L 9.171875 0 L 9.171875 -24.1875 L 0.796875 -24.1875 L 0.796875 -29.015625 Z M 23.25 -29.015625 "/></g></g></g><g fill="#ff914d" fill-opacity="1"><g transform="translate(110.495343, 126.500345)"><g><path d="M 6.578125 -20.09375 L 6.578125 -3.328125 L 15.609375 -3.328125 L 15.609375 0 L 2.609375 0 L 2.609375 -20.09375 Z M 6.578125 -20.09375 "/></g></g></g></svg>